<svg xmlns="http://www.w3.org/2000/svg" id="sloy-load-white" viewBox="0 0 462 340" style="background: rgba(215,14,14,0.00);"><defs><mask id="Mask-1" style="mask-type: alpha;"><g><g transform="translate(50000,50000)"><g><path d="M145.5-80v160h-291v-160h291Z"/></g></g></g></mask><mask id="Mask-2" style="mask-type: alpha;"><g><g transform="translate(50000,50000)"><g><path d="M137.5-80v160h-275v-160h275Z"/></g></g></g></mask><mask id="Mask-3" style="mask-type: alpha;"><g><g transform="translate(50000,50000)"><g><path d="M148.5-86v172h-297v-172h297Z"/></g></g></g></mask><mask id="Mask-4" style="mask-type: alpha;"><g><g transform="translate(50000,50000)"><g><path d="M138-80v160h-276v-160h276Z"/></g></g></g></mask></defs><style>
@keyframes a0_mo { 0% { offset-distance: 0%; animation-timing-function: steps(1); } 5% { offset-distance: 0%; animation-timing-function: cubic-bezier(.5,0,.5,1); } 25% { offset-distance: 33.333%; animation-timing-function: steps(1); } 25.05% { offset-distance: 33.333%; animation-timing-function: cubic-bezier(.5,0,.5,1); } 45% { offset-distance: 83.333%; animation-timing-function: steps(1); } 45.05% { offset-distance: 83.333%; animation-timing-function: cubic-bezier(.5,0,.5,1); } 85% { offset-distance: 100%; } 100% { offset-distance: 100%; } }
@keyframes a1_mo { 0% { offset-distance: 0%; animation-timing-function: steps(1); } 20% { offset-distance: 0%; animation-timing-function: cubic-bezier(.5,0,.5,1); } 40% { offset-distance: 75%; animation-timing-function: steps(1); } 40.05% { offset-distance: 75%; animation-timing-function: cubic-bezier(.5,0,.5,1); } 80% { offset-distance: 100%; } 100% { offset-distance: 100%; } }
@keyframes a2_mo { 0% { offset-distance: 0%; animation-timing-function: steps(1); } .05% { offset-distance: 0%; animation-timing-function: cubic-bezier(.5,0,.5,1); } 20% { offset-distance: 100%; } 100% { offset-distance: 100%; } }
@keyframes a3_mo { 0% { offset-distance: 0%; animation-timing-function: steps(1); } 15% { offset-distance: 0%; animation-timing-function: cubic-bezier(.5,0,.5,1); } 35% { offset-distance: 33.333%; animation-timing-function: steps(1); } 35.05% { offset-distance: 33.333%; animation-timing-function: cubic-bezier(.5,0,.5,1); } 55% { offset-distance: 83.333%; animation-timing-function: steps(1); } 55.05% { offset-distance: 83.333%; animation-timing-function: cubic-bezier(.5,0,.5,1); } 95% { offset-distance: 100%; } 100% { offset-distance: 100%; } }
@keyframes a4_mo { 0% { offset-distance: 0%; animation-timing-function: steps(1); } 10% { offset-distance: 0%; animation-timing-function: cubic-bezier(.5,0,.5,1); } 30% { offset-distance: 33.333%; animation-timing-function: steps(1); } 30.05% { offset-distance: 33.333%; animation-timing-function: cubic-bezier(.5,0,.5,1); } 50% { offset-distance: 83.333%; animation-timing-function: steps(1); } 50.05% { offset-distance: 83.333%; animation-timing-function: cubic-bezier(.5,0,.5,1); } 90% { offset-distance: 100%; } 100% { offset-distance: 100%; } }
</style><g transform="translate(-49769,-49830)"><g style="transform: translate(-50000px,-50000px); animation: 2s linear infinite both a0_mo; offset-path: path('M49968.5,50038C49968.5,50038,49968.5,50038,49968.5,50038C49968.5,50038,49968.5,49998,49968.5,49998C49968.5,49998,49968.5,49998,49968.5,49998C49968.5,49998,49968.5,50058,49968.5,50058C49968.5,50058,49968.5,50058,49968.5,50058C49968.5,50058,49968.5,50038,49968.5,50038L49968.5,50038'); offset-rotate: 0deg;"><g mask="url(#Mask-1)"><g><g transform="translate(49854.5,49920) scale(1.3333,1.3333)"><g><g><path fill="#fff" d="M188.4 119.5c0 0-187.9-108.5-187.9-108.5c0 0 18.5-10.7 18.5-10.7c0 0 167 96.4 167 96.4c0 0 11.2-6.4 11.2-6.4c0 0 20.9 12.1 20.9 12.1c0 0-29.7 17.1-29.7 17.1Z"/></g></g></g></g></g></g><g style="transform: translate(-50000px,-50000px); animation: 2s linear infinite both a1_mo; offset-path: path('M49907.5,50069C49907.5,50069,49907.5,50069,49907.5,50069C49907.5,50069,49907.5,50129,49907.5,50129C49907.5,50129,49907.5,50129,49907.5,50129C49907.5,50129,49907.5,50109,49907.5,50109L49907.5,50109'); offset-rotate: 0deg;"><g style="transform: translate(-50000px,-50000px); animation: 2s linear infinite both a2_mo; offset-path: path('M50000,50000C50000,50000,50000,50000,50000,50000C50000,50000,50000,49960,50000,49960L50000,49960'); offset-rotate: 0deg;"><g mask="url(#Mask-2)"><g><g transform="translate(49862.5,49920) scale(1.3333,1.3333)"><g><g><path fill="#fff" d="M45.5 21.4c0 0 22.9 13.1 22.9 13.1c0 0 18.6-10.7 18.6-10.7c0 0-22.9-13.2-22.9-13.2c-32.4-18.6-53.5-6.9-55.7-5.6c-2.2 1.3-22.6 13.5 9.7 32.2c24.8 14.8 47 21.8 74.7 28.7c36.8 9.2 45.8 9.9 76.5 27.6c0 0 0 0 0 0c0 0 3.5 2.1 3.5 2.1c2.2 1.3 4.8 2.8 5.7 4.1c1 1.6 0 2.7-1.4 3.5c-1.8 1-4 1.3-6 .8c-2.2-0.6-5-2-7.3-3.3c0 0-3.4-2-3.4-2c0 0-31.2-18-31.2-18c0 0-18.6 10.7-18.6 10.7c0 0 31.2 18 31.2 18c32.4 18.6 53.5 6.9 55.7 5.6c2.2-1.3 22.6-13.5-9.7-32.2c-24.8-14.8-47.1-21.8-74.7-28.7c-36.8-9.2-45.8-9.9-76.5-27.6c0 0-3.5-2.1-3.5-2.1c-2.3-1.3-4.8-2.8-5.7-4.1c-1.1-1.6 0-2.7 1.3-3.5c1.8-1 4-1.3 6-0.8c2.3 .6 5 2 7.3 3.3c0 0 3.5 2 3.5 2c0 0 0 .1 0 .1Z"/></g></g></g></g></g></g></g><g style="transform: translate(-50000px,-50000px); animation: 2s linear infinite both a3_mo; offset-path: path('M50082.5,49956C50082.5,49956,50082.5,49956,50082.5,49956C50082.5,49956,50082.5,49916,50082.5,49916C50082.5,49916,50082.5,49916,50082.5,49916C50082.5,49916,50082.5,49976,50082.5,49976C50082.5,49976,50082.5,49976,50082.5,49976C50082.5,49976,50082.5,49956,50082.5,49956L50082.5,49956'); offset-rotate: 0deg;"><g mask="url(#Mask-3)"><g><g transform="translate(49851.5,49914) scale(1.3333,1.3333)"><g><g><path fill="#fff" d="M110.3 63.5c0 0-91.4-45.2-91.4-45.2c0 0-18.5 10.7-18.5 10.7c0 0 124.7 53.7 124.7 53.7c0 0 79 45.6 79 45.6c0 0 18.5-10.7 18.5-10.7c0 0-79-45.6-79-45.6c0 0-93-72-93-72c0 0-18.5 10.7-18.5 10.7c0 0 78.2 52.8 78.2 52.8Z"/></g></g></g></g></g></g><g style="transform: translate(-50000px,-50000px); animation: 2s linear infinite both a4_mo; offset-path: path('M50026,50001C50026,50001,50026,50001,50026,50001C50026,50001,50026,49961,50026,49961C50026,49961,50026,49961,50026,49961C50026,49961,50026,50021,50026,50021C50026,50021,50026,50021,50026,50021C50026,50021,50026,50001,50026,50001L50026,50001'); offset-rotate: 0deg;"><g mask="url(#Mask-4)"><g><g transform="translate(49862,49920) scale(1.3333,1.3333)"><g><g><path fill="#fff" d="M8.4 4.9c-2.3 1.3-22.7 13.5 9.9 32.3c0 0 123.9 71.6 123.9 71.6c32.6 18.9 53.7 7 56 5.8c2.2-1.3 22.7-13.5-10-32.3c0 0-123.9-71.6-123.9-71.6c-32.6-18.9-53.7-7-55.9-5.8c0 0 0 0 0 0Zm165 90.2c2.3 1.3 4.8 2.9 5.7 4.2c1 1.5 0 2.6-1.4 3.4c-1.8 1-3.9 1.3-6 .8c-2.2-0.5-4.9-2-7.2-3.3c0 0-131.4-75.8-131.4-75.8c-2.2-1.3-4.8-2.9-5.6-4.2c-1.1-1.6 0-2.7 1.3-3.5c1.9-1 4-1.3 6-0.7c2.2 .5 5 1.9 7.2 3.2c0 0 131.4 75.9 131.4 75.9Z"/></g></g></g></g></g></g></g></svg>