<svg fill="none" height="204" viewBox="0 0 1167 204" width="1167" xmlns="http://www.w3.org/2000/svg" xmlns:xlink="http://www.w3.org/1999/xlink"><filter id="a" color-interpolation-filters="sRGB" filterUnits="userSpaceOnUse" height="56" width="183" x="776.5" y="52"><feFlood flood-opacity="0" result="BackgroundImageFix"/><feGaussianBlur in="BackgroundImageFix" stdDeviation="10"/><feComposite in2="SourceAlpha" operator="in" result="effect1_backgroundBlur_986_582"/><feBlend in="SourceGraphic" in2="effect1_backgroundBlur_986_582" mode="normal" result="shape"/></filter><path d="m0 0h1167v204h-1167z" fill="#fff"/><rect fill="#041c31" height="188" rx="16" width="325"/><path d="m29.19 39v-1.148h2.73v-5.404h-2.45v-1.148h3.71v6.552h2.59v1.148zm3.22-9.086c-.308 0-.5507-.0793-.728-.238s-.266-.3733-.266-.644c0-.28.0887-.4993.266-.658.1773-.168.42-.252.728-.252s.5507.084.728.252c.1773.1587.266.378.266.658 0 .2707-.0887.4853-.266.644s-.42.238-.728.238zm5.2725 9.086v-7.7h1.26v1.47h.266l-.266.294c0-.6067.182-1.0733.546-1.4.364-.336.868-.504 1.512-.504.7747 0 1.3907.238 1.848.714.4574.476.686 1.1247.686 1.946v5.18h-1.26v-5.04c0-.5507-.1493-.9707-.448-1.26-.2893-.2987-.686-.448-1.19-.448-.5226 0-.938.1587-1.246.476-.2986.3173-.448.7747-.448 1.372v4.9zm12.1466 0c-.6347 0-1.1434-.182-1.526-.546-.3827-.3733-.574-.868-.574-1.484v-4.522h-2.17v-1.148h2.17v-2.17h1.26v2.17h3.08v1.148h-3.08v4.522c0 .2613.0746.476.224.644.1586.1587.364.238.616.238h2.1v1.148zm7.5545.14c-.6067 0-1.1387-.1213-1.596-.364-.448-.2427-.798-.5833-1.05-1.022-.2427-.448-.364-.966-.364-1.554v-2.1c0-.5973.1213-1.1153.364-1.554.252-.4387.602-.7793 1.05-1.022.4573-.2427.9893-.364 1.596-.364s1.134.1213 1.582.364c.4573.2427.8073.5833 1.05 1.022.252.4387.378.9567.378 1.554v1.358h-4.788v.742c0 .6067.154 1.0733.462 1.4.308.3173.7467.476 1.316.476.4853 0 .8773-.084 1.176-.252.2987-.1773.4807-.4387.546-.784h1.26c-.084.644-.4013 1.1573-.952 1.54-.5413.3733-1.218.56-2.03.56zm1.778-4.522v-.518c0-.6067-.154-1.0733-.462-1.4-.2987-.3267-.7373-.49-1.316-.49-.5693 0-1.008.1633-1.316.49s-.462.7933-.462 1.4v.406h3.654zm3.9425 4.382v-7.7h1.26v1.47h.266l-.266.294c0-.6067.182-1.0733.546-1.4.364-.336.868-.504 1.512-.504.8027 0 1.442.2567 1.918.77.476.504.714 1.19.714 2.058v.532h-1.26v-.42c0-.588-.1493-1.0407-.448-1.358-.2986-.3267-.7326-.49-1.302-.49-.5413 0-.9566.1587-1.246.476-.2893.308-.434.7653-.434 1.372v4.9zm9.9486 0v-5.782h-2.24v-1.148h2.24v-1.33c0-.6067.1913-1.0827.574-1.428.3826-.3547.91-.532 1.582-.532h2.254v1.148h-2.254c-.2894 0-.5134.07-.672.21-.1494.1307-.224.3313-.224.602v1.33h3.15v1.148h-3.15v5.782zm8.8425.14c-.812 0-1.4513-.2053-1.918-.616-.4667-.42-.7-.9847-.7-1.694 0-.7187.2333-1.2833.7-1.694s1.0967-.616 1.89-.616h2.38v-.77c0-.4667-.1447-.8307-.434-1.092-.28-.2613-.672-.392-1.176-.392-.448 0-.826.098-1.134.294s-.4993.4527-.574.77h-1.26c.0467-.4293.2007-.8073.462-1.134.2707-.3267.6207-.5787 1.05-.756.4387-.1867.924-.28 1.456-.28.8867 0 1.5867.2287 2.1.686s.77 1.078.77 1.862v5.292h-1.232v-1.47h-.21l.21-.21c0 .56-.2193 1.0033-.658 1.33-.4293.3267-1.0033.49-1.722.49zm.308-.994c.5973 0 1.0873-.1493 1.47-.448s.574-.6813.574-1.148v-1.092h-2.352c-.42 0-.7513.1167-.994.35s-.364.5507-.364.952c0 .4293.1447.77.434 1.022.2987.2427.7093.364 1.232.364zm8.8145.994c-.616 0-1.1573-.1167-1.624-.35-.4573-.2333-.812-.5693-1.064-1.008-.252-.448-.378-.9753-.378-1.582v-2.1c0-.616.126-1.1433.378-1.582s.6067-.7747 1.064-1.008c.4667-.2333 1.008-.35 1.624-.35.8867 0 1.6007.238 2.142.714.5414.476.826 1.1247.854 1.946h-1.26c-.028-.4947-.196-.8727-.504-1.134-.2986-.2707-.7093-.406-1.232-.406-.5506 0-.9893.1587-1.316.476-.3266.308-.49.7513-.49 1.33v2.114c0 .5787.1634 1.0267.49 1.344.3267.3173.7654.476 1.316.476.5227 0 .9334-.1353 1.232-.406.308-.2707.476-.6487.504-1.134h1.26c-.028.8213-.3126 1.47-.854 1.946-.5413.476-1.2553.714-2.142.714zm8.3386 0c-.6067 0-1.1387-.1213-1.596-.364-.448-.2427-.798-.5833-1.05-1.022-.2427-.448-.364-.966-.364-1.554v-2.1c0-.5973.1213-1.1153.364-1.554.252-.4387.602-.7793 1.05-1.022.4573-.2427.9893-.364 1.596-.364.6066 0 1.1337.1213 1.5817.364.458.2427.808.5833 1.05 1.022.252.4387.378.9567.378 1.554v1.358h-4.7877v.742c0 .6067.154 1.0733.462 1.4.308.3173.7466.476 1.316.476.4853 0 .8777-.084 1.1757-.252.299-.1773.481-.4387.546-.784h1.26c-.084.644-.401 1.1573-.952 1.54-.541.3733-1.218.56-2.0297.56zm1.7777-4.522v-.518c0-.6067-.154-1.0733-.462-1.4-.298-.3267-.7371-.49-1.3157-.49-.5694 0-1.008.1633-1.316.49s-.462.7933-.462 1.4v.406h3.6537z" fill="#c792ea"/><path d="m210.725 40.54c-.551 0-1.031-.0933-1.442-.28-.401-.1773-.705-.4433-.91-.798-.205-.3453-.285-.7607-.238-1.246l.21-2.296c.047-.4947-.023-.8493-.21-1.064-.187-.224-.583-.336-1.19-.336h-1.61v-1.12h1.61c.607 0 1.003-.1073 1.19-.322.187-.224.257-.5833.21-1.078l-.21-2.296c-.047-.4947.033-.9147.238-1.26s.509-.6067.91-.784c.411-.1867.891-.28 1.442-.28h.63v1.12h-.63c-.439 0-.779.1027-1.022.308-.243.196-.345.4947-.308.896l.21 2.296c.056.6067-.084 1.0827-.42 1.428-.336.336-.803.504-1.4.504v-.07c.588 0 1.05.1913 1.386.574.345.3827.49.8773.434 1.484l-.21 2.296c-.037.4013.065.7.308.896.243.2053.583.308 1.022.308h.63v1.12zm-144.9469 12.72c-.3453 0-.6253-.0933-.84-.28-.2146-.196-.322-.4527-.322-.77s.1074-.5693.322-.756c.2147-.196.4947-.294.84-.294.3547 0 .6347.098.84.294.2147.1867.322.4387.322.756s-.1073.574-.322.77c-.2053.1867-.4853.28-.84.28zm0 5.88c-.3453 0-.6253-.0933-.84-.28-.2146-.196-.322-.4527-.322-.77s.1074-.5693.322-.756c.2147-.196.4947-.294.84-.294.3547 0 .6347.098.84.294.2147.1867.322.4387.322.756s-.1073.574-.322.77c-.2053.1867-.4853.28-.84.28zm65.3359 2.1 1.12-4.354h1.82l-1.82 4.354zm1.68-7.98c-.308 0-.56-.098-.756-.294s-.294-.448-.294-.756c0-.2987.098-.546.294-.742.206-.2053.458-.308.756-.308h.28c.299 0 .546.1027.742.308.206.196.308.4433.308.742 0 .308-.098.56-.294.756s-.448.294-.756.294zm-8.254 20c-.345 0-.625-.0933-.84-.28-.215-.196-.322-.4527-.322-.77s.107-.5693.322-.756c.215-.196.495-.294.84-.294.355 0 .635.098.84.294.215.1867.322.4387.322.756s-.107.574-.322.77c-.205.1867-.485.28-.84.28zm0 5.88c-.345 0-.625-.0933-.84-.28-.215-.196-.322-.4527-.322-.77s.107-.5693.322-.756c.215-.196.495-.294.84-.294.355 0 .635.098.84.294.215.1867.322.4387.322.756s-.107.574-.322.77c-.205.1867-.485.28-.84.28zm65.336 2.1 1.12-4.354h1.82l-1.82 4.354zm1.68-7.98c-.308 0-.56-.098-.756-.294s-.294-.448-.294-.756c0-.2987.098-.546.294-.742.205-.2053.457-.308.756-.308h.28c.299 0 .546.1027.742.308.205.196.308.4433.308.742 0 .308-.098.56-.294.756s-.448.294-.756.294zm-75.304 22.87v-2.52h.7c.597 0 1.073-.1633 1.428-.49.345-.336.518-.7793.518-1.33s-.173-.9893-.518-1.316c-.355-.336-.835-.504-1.442-.504h-1.75v-1.19h1.75c.653 0 1.223.126 1.708.378.476.2427.849.588 1.12 1.036.261.448.392.98.392 1.596 0 .532-.112 1.0127-.336 1.442-.224.42-.532.756-.924 1.008-.401.252-.863.392-1.386.42v1.47zm.406 2.94c-.243 0-.443-.0793-.602-.238s-.238-.3593-.238-.602.079-.4433.238-.602.359-.238.602-.238h.42c.271 0 .481.0793.63.238.14.1493.21.3453.21.588s-.079.448-.238.616c-.159.1587-.359.238-.602.238zm7.182-5.81c-.345 0-.625-.0933-.84-.28-.215-.196-.322-.4527-.322-.77s.107-.5693.322-.756c.215-.196.495-.294.84-.294.355 0 .635.098.84.294.215.1867.322.4387.322.756s-.107.574-.322.77c-.205.1867-.485.28-.84.28zm0 5.88c-.345 0-.625-.0933-.84-.28-.215-.196-.322-.4527-.322-.77s.107-.5693.322-.756c.215-.196.495-.294.84-.294.355 0 .635.098.84.294.215.1867.322.4387.322.756s-.107.574-.322.77c-.205.1867-.485.28-.84.28zm66.036 2.1 1.12-4.354h1.82l-1.82 4.354zm1.68-7.98c-.308 0-.56-.098-.756-.294s-.294-.448-.294-.756c0-.2987.098-.546.294-.742.205-.2053.457-.308.756-.308h.28c.299 0 .546.1027.742.308.205.196.308.4433.308.742 0 .308-.098.56-.294.756s-.448.294-.756.294zm-117.3833 20c-.3454 0-.6254-.093-.84-.28-.2147-.196-.322-.453-.322-.77s.1073-.569.322-.756c.2146-.196.4946-.294.84-.294.3546 0 .6346.098.84.294.2146.187.322.439.322.756s-.1074.574-.322.77c-.2054.187-.4854.28-.84.28zm0 5.88c-.3454 0-.6254-.093-.84-.28-.2147-.196-.322-.453-.322-.77s.1073-.569.322-.756c.2146-.196.4946-.294.84-.294.3546 0 .6346.098.84.294.2146.187.322.439.322.756s-.1074.574-.322.77c-.2054.187-.4854.28-.84.28zm65.3363 2.1 1.12-4.354h1.82l-1.82 4.354zm1.68-7.98c-.308 0-.56-.098-.756-.294s-.294-.448-.294-.756c0-.299.098-.546.294-.742.205-.205.457-.308.756-.308h.28c.299 0 .546.103.742.308.205.196.308.443.308.742 0 .308-.098.56-.294.756s-.448.294-.756.294zm67.403 22.87v-2.52h.7c.597 0 1.073-.163 1.428-.49.345-.336.518-.779.518-1.33s-.173-.989-.518-1.316c-.355-.336-.836-.504-1.442-.504h-1.75v-1.19h1.75c.653 0 1.222.126 1.708.378.476.243.849.588 1.12 1.036.261.448.392.98.392 1.596 0 .532-.112 1.013-.336 1.442-.224.42-.532.756-.924 1.008-.402.252-.864.392-1.386.42v1.47zm.406 2.94c-.243 0-.444-.079-.602-.238-.159-.159-.238-.359-.238-.602s.079-.443.238-.602c.158-.159.359-.238.602-.238h.42c.27 0 .48.079.63.238.14.149.21.345.21.588s-.08.448-.238.616c-.159.159-.36.238-.602.238zm7.182-5.81c-.346 0-.626-.093-.84-.28-.215-.196-.322-.453-.322-.77s.107-.569.322-.756c.214-.196.494-.294.84-.294.354 0 .634.098.84.294.214.187.322.439.322.756s-.108.574-.322.77c-.206.187-.486.28-.84.28zm0 5.88c-.346 0-.626-.093-.84-.28-.215-.196-.322-.453-.322-.77s.107-.569.322-.756c.214-.196.494-.294.84-.294.354 0 .634.098.84.294.214.187.322.439.322.756s-.108.574-.322.77c-.206.187-.486.28-.84.28zm74.43 2.1 1.12-4.354h1.82l-1.82 4.354zm1.68-7.98c-.308 0-.56-.098-.756-.294s-.294-.448-.294-.756c0-.299.098-.546.294-.742.206-.205.458-.308.756-.308h.28c.299 0 .546.103.742.308.206.196.308.443.308.742 0 .308-.098.56-.294.756s-.448.294-.756.294zm-262.96 27.28v-1.12h.63c.4387 0 .7793-.103 1.022-.308.2427-.196.3453-.495.308-.896l-.21-2.296c-.056-.607.084-1.101.42-1.484.3453-.392.812-.588 1.4-.588v.07c-.5973 0-1.064-.168-1.4-.504s-.476-.807-.42-1.414l.21-2.296c.0373-.401-.0653-.7-.308-.896-.2427-.205-.5833-.308-1.022-.308h-.63v-1.12h.63c.5507 0 1.0267.093 1.428.28.4107.177.7187.439.924.784s.2847.765.238 1.26l-.21 2.296c-.0373.495.0327.854.21 1.078.1867.215.5833.322 1.19.322h1.61v1.12h-1.61c-.5973 0-.9893.112-1.176.336-.1867.215-.2613.569-.224 1.064l.21 2.296c.0467.485-.0327.901-.238 1.246-.2053.355-.5133.621-.924.798-.4013.187-.8773.28-1.428.28z" fill="#5f7e97"/><path d="m113.415 39v-1.148h2.086v-7.924h-2.086v-1.148h5.46v1.148h-2.086v7.924h2.086v1.148zm11.181.14c-.616 0-1.153-.1167-1.61-.35-.448-.2333-.798-.5693-1.05-1.008-.243-.448-.364-.9753-.364-1.582v-4.62c0-.616.121-1.1433.364-1.582.252-.4387.602-.7747 1.05-1.008.457-.2333.994-.35 1.61-.35s1.148.1213 1.596.364c.448.2333.793.5693 1.036 1.008s.364.9613.364 1.568h-1.26c0-.5787-.154-1.022-.462-1.33-.299-.3173-.723-.476-1.274-.476s-.985.154-1.302.462c-.308.308-.462.7513-.462 1.33v4.634c0 .5787.154 1.0267.462 1.344.317.308.751.462 1.302.462s.975-.154 1.274-.462c.308-.3173.462-.7653.462-1.344h1.26c0 .5973-.121 1.12-.364 1.568-.243.4387-.588.7793-1.036 1.022-.448.2333-.98.35-1.596.35zm8.338-.028c-.616 0-1.152-.1167-1.61-.35-.448-.2427-.793-.5833-1.036-1.022-.242-.4387-.364-.9613-.364-1.568v-2.044c0-.6067.122-1.1293.364-1.568.243-.4387.588-.7747 1.036-1.008.458-.2427.994-.364 1.61-.364.626 0 1.162.1213 1.61.364.448.2333.794.5693 1.036 1.008.243.4293.364.9473.364 1.554v2.058c0 .6067-.121 1.1293-.364 1.568-.242.4387-.588.7793-1.036 1.022-.448.2333-.984.35-1.61.35zm0-1.12c.551 0 .98-.154 1.288-.462s.462-.7607.462-1.358v-2.044c0-.5973-.154-1.05-.462-1.358s-.737-.462-1.288-.462c-.541 0-.97.154-1.288.462-.308.308-.462.7607-.462 1.358v2.044c0 .5973.154 1.05.462 1.358.318.308.747.462 1.288.462zm5.497 3.528v-10.22h1.26v1.47h.252l-.252.294c0-.588.191-1.05.574-1.386.392-.3453.905-.518 1.54-.518.775 0 1.391.2567 1.848.77.467.504.7 1.1993.7 2.086v2.254c0 .588-.107 1.0967-.322 1.526-.205.4293-.499.7607-.882.994-.373.2333-.821.35-1.344.35-.625 0-1.134-.1727-1.526-.518s-.588-.8073-.588-1.386l.252.294h-.28l.028 1.75v2.24zm2.954-3.472c.532 0 .947-.1587 1.246-.476.308-.3173.462-.7747.462-1.372v-2.1c0-.5973-.154-1.0547-.462-1.372-.299-.3173-.714-.476-1.246-.476-.513 0-.924.1633-1.232.49s-.462.7793-.462 1.358v2.1c0 .5787.154 1.0313.462 1.358s.719.49 1.232.49zm6.644 3.472 1.134-2.996-2.94-7.224h1.372l1.876 4.76c.066.1587.126.35.182.574.066.2147.117.3967.154.546.038-.1493.089-.3313.154-.546.066-.224.131-.4153.196-.574l1.75-4.76h1.316l-3.878 10.22zm7.415-2.52v-7.7h1.26v1.47h.266l-.266.294c0-.6067.182-1.0733.546-1.4.364-.336.868-.504 1.512-.504.803 0 1.442.2567 1.918.77.476.504.714 1.19.714 2.058v.532h-1.26v-.42c0-.588-.149-1.0407-.448-1.358-.299-.3267-.733-.49-1.302-.49-.541 0-.957.1587-1.246.476-.289.308-.434.7653-.434 1.372v4.9zm8.059 0v-1.148h2.73v-5.404h-2.45v-1.148h3.71v6.552h2.59v1.148zm3.22-9.086c-.308 0-.551-.0793-.728-.238-.178-.1587-.266-.3733-.266-.644 0-.28.088-.4993.266-.658.177-.168.42-.252.728-.252s.55.084.728.252c.177.1587.266.378.266.658 0 .2707-.089.4853-.266.644-.178.1587-.42.238-.728.238zm6.238 11.606v-1.148h2.45c.392 0 .677-.0887.854-.266.187-.1773.28-.4527.28-.826v-.98l.028-1.4h-.252l.238-.21c0 .56-.187 1.0033-.56 1.33s-.873.49-1.498.49c-.793 0-1.419-.2567-1.876-.77-.457-.5227-.686-1.2227-.686-2.1v-1.624c0-.8773.229-1.5727.686-2.086s1.083-.77 1.876-.77c.625 0 1.125.1633 1.498.49s.56.77.56 1.33l-.238-.21h.238v-1.47h1.246v7.98c0 .6907-.215 1.2367-.644 1.638-.42.4013-1.008.602-1.764.602zm1.918-4.102c.523 0 .933-.1633 1.232-.49s.448-.7793.448-1.358v-1.47c0-.5787-.149-1.0313-.448-1.358s-.709-.49-1.232-.49c-.532 0-.947.1587-1.246.476-.289.3173-.434.7747-.434 1.372v1.47c0 .5973.145 1.0547.434 1.372.299.3173.714.476 1.246.476zm5.511 1.582v-10.22h1.26v2.52 1.47h.266l-.266.294c0-.6067.182-1.0733.546-1.4.364-.336.868-.504 1.512-.504.774 0 1.39.238 1.848.714.457.476.686 1.1247.686 1.946v5.18h-1.26v-5.04c0-.5507-.15-.9753-.448-1.274-.29-.308-.686-.462-1.19-.462-.523 0-.938.1633-1.246.49-.299.3267-.448.7887-.448 1.386v4.9zm12.146 0c-.635 0-1.143-.182-1.526-.546-.383-.3733-.574-.868-.574-1.484v-4.522h-2.17v-1.148h2.17v-2.17h1.26v2.17h3.08v1.148h-3.08v4.522c0 .2613.075.476.224.644.159.1587.364.238.616.238h2.1v1.148zm-110.2068 20.112c-.5227 0-.9893-.0793-1.4-.238-.4107-.168-.7327-.406-.966-.714-.224-.308-.336-.672-.336-1.092h1.288c0 .2893.1353.518.406.686.28.1587.6253.238 1.036.238h.588c.4947 0 .8633-.098 1.106-.294.2427-.2053.364-.476.364-.812 0-.3267-.1167-.5833-.35-.77-.224-.196-.5507-.3267-.98-.392l-1.036-.168c-.7653-.1307-1.33-.3733-1.694-.728s-.546-.8447-.546-1.47c0-.7.224-1.2367.672-1.61.4573-.3733 1.1107-.56 1.96-.56h.532c.784 0 1.4093.1773 1.876.532.476.3453.714.8073.714 1.386h-1.288c0-.2427-.1213-.434-.364-.574-.2333-.1493-.5553-.224-.966-.224h-.532c-.4387 0-.7793.0933-1.022.28-.2333.1773-.35.434-.35.77 0 .56.3967.9053 1.19 1.036l1.036.168c.8307.1307 1.4327.3733 1.806.728.3827.3547.574.868.574 1.54 0 .7093-.2287 1.2693-.686 1.68-.448.4013-1.1293.602-2.044.602zm9.4725-.112c-.6346 0-1.1433-.182-1.526-.546-.3826-.3733-.574-.868-.574-1.484v-4.522h-2.17v-1.148h2.17v-2.17h1.26v2.17h3.08v1.148h-3.08v4.522c0 .2613.0747.476.224.644.1587.1587.364.238.616.238h2.1v1.148zm4.8806 0v-7.7h1.26v1.47h.266l-.266.294c0-.6067.182-1.0733.546-1.4.364-.336.868-.504 1.5117-.504.803 0 1.442.2567 1.918.77.476.504.714 1.19.714 2.058v.532h-1.26v-.42c0-.588-.149-1.0407-.448-1.358-.298-.3267-.732-.49-1.3017-.49-.5414 0-.9567.1587-1.246.476-.2894.308-.434.7653-.434 1.372v4.9zm8.0587 0v-1.148h2.73v-5.404h-2.45v-1.148h3.71v6.552h2.59v1.148zm3.22-9.086c-.308 0-.551-.0793-.728-.238-.178-.1587-.266-.3733-.266-.644 0-.28.088-.4993.266-.658.177-.168.42-.252.728-.252s.55.084.728.252c.177.1587.266.378.266.658 0 .2707-.089.4853-.266.644-.178.1587-.42.238-.728.238zm5.272 9.086v-7.7h1.26v1.47h.266l-.266.294c0-.6067.182-1.0733.546-1.4.364-.336.868-.504 1.512-.504.775 0 1.391.238 1.848.714.458.476.686 1.1247.686 1.946v5.18h-1.26v-5.04c0-.5507-.149-.9707-.448-1.26-.289-.2987-.686-.448-1.19-.448-.522 0-.938.1587-1.246.476-.298.3173-.448.7747-.448 1.372v4.9zm9.361 2.52v-1.148h2.45c.392 0 .677-.0887.854-.266.187-.1773.28-.4527.28-.826v-.98l.028-1.4h-.252l.238-.21c0 .56-.187 1.0033-.56 1.33s-.873.49-1.498.49c-.793 0-1.419-.2567-1.876-.77-.457-.5227-.686-1.2227-.686-2.1v-1.624c0-.8773.229-1.5727.686-2.086s1.083-.77 1.876-.77c.625 0 1.125.1633 1.498.49s.56.77.56 1.33l-.238-.21h.238v-1.47h1.246v7.98c0 .6907-.215 1.2367-.644 1.638-.42.4013-1.008.602-1.764.602zm1.918-4.102c.523 0 .933-.1633 1.232-.49s.448-.7793.448-1.358v-1.47c0-.5787-.149-1.0313-.448-1.358s-.709-.49-1.232-.49c-.532 0-.947.1587-1.246.476-.289.3173-.434.7747-.434 1.372v1.47c0 .5973.145 1.0547.434 1.372.299.3173.714.476 1.246.476zm16.579 21.694c-.523 0-.989-.0793-1.4-.238-.411-.168-.733-.406-.966-.714-.224-.308-.336-.672-.336-1.092h1.288c0 .2893.135.518.406.686.28.1587.625.238 1.036.238h.588c.495 0 .863-.098 1.106-.294.243-.2053.364-.476.364-.812 0-.3267-.117-.5833-.35-.77-.224-.196-.551-.3267-.98-.392l-1.036-.168c-.765-.1307-1.33-.3733-1.694-.728s-.546-.8447-.546-1.47c0-.7.224-1.2367.672-1.61.457-.3733 1.111-.56 1.96-.56h.532c.784 0 1.409.1773 1.876.532.476.3453.714.8073.714 1.386h-1.288c0-.2427-.121-.434-.364-.574-.233-.1493-.555-.224-.966-.224h-.532c-.439 0-.779.0933-1.022.28-.233.1773-.35.434-.35.77 0 .56.397.9053 1.19 1.036l1.036.168c.831.1307 1.433.3733 1.806.728.383.3547.574.868.574 1.54 0 .7093-.229 1.2693-.686 1.68-.448.4013-1.129.602-2.044.602zm9.472-.112c-.634 0-1.143-.182-1.526-.546-.382-.3733-.574-.868-.574-1.484v-4.522h-2.17v-1.148h2.17v-2.17h1.26v2.17h3.08v1.148h-3.08v4.522c0 .2613.075.476.224.644.159.1587.364.238.616.238h2.1v1.148zm4.881 0v-7.7h1.26v1.47h.266l-.266.294c0-.6067.182-1.0733.546-1.4.364-.336.868-.504 1.512-.504.803 0 1.442.2567 1.918.77.476.504.714 1.19.714 2.058v.532h-1.26v-.42c0-.588-.149-1.0407-.448-1.358-.299-.3267-.733-.49-1.302-.49-.541 0-.957.1587-1.246.476-.289.308-.434.7653-.434 1.372v4.9zm8.059 0v-1.148h2.73v-5.404h-2.45v-1.148h3.71v6.552h2.59v1.148zm3.22-9.086c-.308 0-.551-.0793-.728-.238-.178-.1587-.266-.3733-.266-.644 0-.28.088-.4993.266-.658.177-.168.42-.252.728-.252s.55.084.728.252c.177.1587.266.378.266.658 0 .2707-.089.4853-.266.644-.178.1587-.42.238-.728.238zm5.272 9.086v-7.7h1.26v1.47h.266l-.266.294c0-.6067.182-1.0733.546-1.4.364-.336.868-.504 1.512-.504.775 0 1.391.238 1.848.714s.686 1.1247.686 1.946v5.18h-1.26v-5.04c0-.5507-.149-.9707-.448-1.26-.289-.2987-.686-.448-1.19-.448-.523 0-.938.1587-1.246.476-.299.3173-.448.7747-.448 1.372v4.9zm9.361 2.52v-1.148h2.45c.392 0 .676-.0887.854-.266.186-.1773.28-.4527.28-.826v-.98l.028-1.4h-.252l.238-.21c0 .56-.187 1.0033-.56 1.33-.374.3267-.873.49-1.498.49-.794 0-1.419-.2567-1.876-.77-.458-.5227-.686-1.2227-.686-2.1v-1.624c0-.8773.228-1.5727.686-2.086.457-.5133 1.082-.77 1.876-.77.625 0 1.124.1633 1.498.49.373.3267.56.77.56 1.33l-.238-.21h.238v-1.47h1.246v7.98c0 .6907-.215 1.2367-.644 1.638-.42.4013-1.008.602-1.764.602zm1.918-4.102c.522 0 .933-.1633 1.232-.49.298-.3267.448-.7793.448-1.358v-1.47c0-.5787-.15-1.0313-.448-1.358-.299-.3267-.71-.49-1.232-.49-.532 0-.948.1587-1.246.476-.29.3173-.434.7747-.434 1.372v1.47c0 .5973.144 1.0547.434 1.372.298.3173.714.476 1.246.476zm-42.183 21.694c-.523 0-.989-.0793-1.4-.238-.411-.168-.733-.406-.966-.714-.224-.308-.336-.672-.336-1.092h1.288c0 .2893.135.518.406.686.28.1587.625.238 1.036.238h.588c.495 0 .863-.098 1.106-.294.243-.2053.364-.476.364-.812 0-.3267-.117-.5833-.35-.77-.224-.196-.551-.3267-.98-.392l-1.036-.168c-.765-.1307-1.33-.3733-1.694-.728s-.546-.8447-.546-1.47c0-.7.224-1.2367.672-1.61.457-.3733 1.111-.56 1.96-.56h.532c.784 0 1.409.1773 1.876.532.476.3453.714.8073.714 1.386h-1.288c0-.2427-.121-.434-.364-.574-.233-.1493-.555-.224-.966-.224h-.532c-.439 0-.779.0933-1.022.28-.233.1773-.35.434-.35.77 0 .56.397.9053 1.19 1.036l1.036.168c.831.1307 1.433.3733 1.806.728.383.3547.574.868.574 1.54 0 .7093-.229 1.2693-.686 1.68-.448.4013-1.129.602-2.044.602zm9.472-.112c-.634 0-1.143-.182-1.526-.546-.382-.3733-.574-.868-.574-1.484v-4.522h-2.17v-1.148h2.17v-2.17h1.26v2.17h3.08v1.148h-3.08v4.522c0 .2613.075.476.224.644.159.1587.364.238.616.238h2.1v1.148zm4.881 0v-7.7h1.26v1.47h.266l-.266.294c0-.6067.182-1.0733.546-1.4.364-.336.868-.504 1.512-.504.803 0 1.442.2567 1.918.77.476.504.714 1.19.714 2.058v.532h-1.26v-.42c0-.588-.149-1.0407-.448-1.358-.299-.3267-.733-.49-1.302-.49-.541 0-.957.1587-1.246.476-.289.308-.434.7653-.434 1.372v4.9zm8.059 0v-1.148h2.73v-5.404h-2.45v-1.148h3.71v6.552h2.59v1.148zm3.22-9.086c-.308 0-.551-.0793-.728-.238-.178-.1587-.266-.3733-.266-.644 0-.28.088-.4993.266-.658.177-.168.42-.252.728-.252s.55.084.728.252c.177.1587.266.378.266.658 0 .2707-.089.4853-.266.644-.178.1587-.42.238-.728.238zm5.272 9.086v-7.7h1.26v1.47h.266l-.266.294c0-.6067.182-1.0733.546-1.4.364-.336.868-.504 1.512-.504.775 0 1.391.238 1.848.714s.686 1.1247.686 1.946v5.18h-1.26v-5.04c0-.5507-.149-.9707-.448-1.26-.289-.2987-.686-.448-1.19-.448-.523 0-.938.1587-1.246.476-.299.3173-.448.7747-.448 1.372v4.9zm9.361 2.52v-1.148h2.45c.392 0 .676-.089.854-.266.186-.1773.28-.4527.28-.826v-.98l.028-1.4h-.252l.238-.21c0 .56-.187 1.0033-.56 1.33-.374.3267-.873.49-1.498.49-.794 0-1.419-.2567-1.876-.77-.458-.5227-.686-1.2227-.686-2.1v-1.624c0-.8773.228-1.5727.686-2.086.457-.5133 1.082-.77 1.876-.77.625 0 1.124.1633 1.498.49.373.3267.56.77.56 1.33l-.238-.21h.238v-1.47h1.246v7.98c0 .6907-.215 1.237-.644 1.638-.42.401-1.008.602-1.764.602zm1.918-4.102c.522 0 .933-.1633 1.232-.49.298-.3267.448-.7793.448-1.358v-1.47c0-.5787-.15-1.0313-.448-1.358-.299-.3267-.71-.49-1.232-.49-.532 0-.948.1587-1.246.476-.29.3173-.434.7747-.434 1.372v1.47c0 .5973.144 1.0547.434 1.372.298.3173.714.476 1.246.476zm-92.5503 21.694c-.5226 0-.9893-.079-1.4-.238-.4106-.168-.7326-.406-.966-.714-.224-.308-.336-.672-.336-1.092h1.288c0 .289.1354.518.406.686.28.159.6254.238 1.036.238h.588c.4947 0 .8634-.098 1.106-.294.2427-.205.364-.476.364-.812 0-.327-.1166-.583-.35-.77-.224-.196-.5506-.327-.98-.392l-1.036-.168c-.7653-.131-1.33-.373-1.694-.728s-.546-.845-.546-1.47c0-.7.224-1.237.672-1.61.4574-.373 1.1107-.56 1.96-.56h.532c.784 0 1.4094.177 1.876.532.476.345.714.807.714 1.386h-1.288c0-.243-.1213-.434-.364-.574-.2333-.149-.5553-.224-.966-.224h-.532c-.4386 0-.7793.093-1.022.28-.2333.177-.35.434-.35.77 0 .56.3967.905 1.19 1.036l1.036.168c.8307.131 1.4327.373 1.806.728.3827.355.574.868.574 1.54 0 .709-.2286 1.269-.686 1.68-.448.401-1.1293.602-2.044.602zm9.4723-.112c-.6344 0-1.1431-.182-1.5257-.546-.3827-.373-.574-.868-.574-1.484v-4.522h-2.17v-1.148h2.17v-2.17h1.26v2.17h3.0797v1.148h-3.0797v4.522c0 .261.0746.476.224.644.1586.159.364.238.6157.238h2.1v1.148zm4.881 0v-7.7h1.26v1.47h.266l-.266.294c0-.607.182-1.073.546-1.4.364-.336.868-.504 1.512-.504.802 0 1.442.257 1.918.77.476.504.714 1.19.714 2.058v.532h-1.26v-.42c0-.588-.15-1.041-.448-1.358-.299-.327-.733-.49-1.302-.49-.542 0-.957.159-1.246.476-.29.308-.434.765-.434 1.372v4.9zm8.058 0v-1.148h2.73v-5.404h-2.45v-1.148h3.71v6.552h2.59v1.148zm3.22-9.086c-.308 0-.55-.079-.728-.238-.177-.159-.266-.373-.266-.644 0-.28.089-.499.266-.658.178-.168.42-.252.728-.252s.551.084.728.252c.178.159.266.378.266.658 0 .271-.088.485-.266.644-.177.159-.42.238-.728.238zm5.273 9.086v-7.7h1.26v1.47h.266l-.266.294c0-.607.182-1.073.546-1.4.364-.336.868-.504 1.512-.504.775 0 1.391.238 1.848.714s.686 1.125.686 1.946v5.18h-1.26v-5.04c0-.551-.149-.971-.448-1.26-.289-.299-.686-.448-1.19-.448-.523 0-.938.159-1.246.476-.299.317-.448.775-.448 1.372v4.9zm9.36 2.52v-1.148h2.45c.392 0 .677-.089.854-.266.187-.177.28-.453.28-.826v-.98l.028-1.4h-.252l.238-.21c0 .56-.186 1.003-.56 1.33-.373.327-.872.49-1.498.49-.793 0-1.418-.257-1.876-.77-.457-.523-.686-1.223-.686-2.1v-1.624c0-.877.229-1.573.686-2.086.458-.513 1.083-.77 1.876-.77.626 0 1.125.163 1.498.49.374.327.56.77.56 1.33l-.238-.21h.238v-1.47h1.246v7.98c0 .691-.214 1.237-.644 1.638-.42.401-1.008.602-1.764.602zm1.918-4.102c.523 0 .934-.163 1.232-.49.299-.327.448-.779.448-1.358v-1.47c0-.579-.149-1.031-.448-1.358-.298-.327-.709-.49-1.232-.49-.532 0-.947.159-1.246.476-.289.317-.434.775-.434 1.372v1.47c0 .597.145 1.055.434 1.372.299.317.714.476 1.246.476zm101.211 21.722c-.635 0-1.144-.168-1.526-.504-.383-.345-.574-.812-.574-1.4l.252.294h-.252v1.47h-1.26v-10.22h1.26v2.24l-.028 1.75h.28l-.252.294c0-.579.191-1.041.574-1.386.392-.345.9-.518 1.526-.518.774 0 1.395.257 1.862.77.466.513.7 1.213.7 2.1v2.254c0 .877-.234 1.573-.7 2.086-.467.513-1.088.77-1.862.77zm-.42-1.092c.532 0 .952-.159 1.26-.476s.462-.775.462-1.372v-2.1c0-.597-.154-1.055-.462-1.372s-.728-.476-1.26-.476c-.514 0-.924.163-1.232.49-.299.327-.448.779-.448 1.358v2.1c0 .579.149 1.031.448 1.358.308.327.718.49 1.232.49zm8.366 1.064c-.616 0-1.152-.117-1.61-.35-.448-.243-.793-.583-1.036-1.022-.242-.439-.364-.961-.364-1.568v-2.044c0-.607.122-1.129.364-1.568.243-.439.588-.775 1.036-1.008.458-.243.994-.364 1.61-.364.626 0 1.162.121 1.61.364.448.233.794.569 1.036 1.008.243.429.364.947.364 1.554v2.058c0 .607-.121 1.129-.364 1.568-.242.439-.588.779-1.036 1.022-.448.233-.984.35-1.61.35zm0-1.12c.551 0 .98-.154 1.288-.462s.462-.761.462-1.358v-2.044c0-.597-.154-1.05-.462-1.358s-.737-.462-1.288-.462c-.541 0-.97.154-1.288.462-.308.308-.462.761-.462 1.358v2.044c0 .597.154 1.05.462 1.358.318.308.747.462 1.288.462zm8.395 1.12c-.616 0-1.153-.117-1.61-.35-.448-.243-.794-.583-1.036-1.022-.243-.439-.364-.961-.364-1.568v-2.044c0-.607.121-1.129.364-1.568.242-.439.588-.775 1.036-1.008.457-.243.994-.364 1.61-.364.625 0 1.162.121 1.61.364.448.233.793.569 1.036 1.008.242.429.364.947.364 1.554v2.058c0 .607-.122 1.129-.364 1.568-.243.439-.588.779-1.036 1.022-.448.233-.985.35-1.61.35zm0-1.12c.55 0 .98-.154 1.288-.462s.462-.761.462-1.358v-2.044c0-.597-.154-1.05-.462-1.358s-.738-.462-1.288-.462c-.542 0-.971.154-1.288.462-.308.308-.462.761-.462 1.358v2.044c0 .597.154 1.05.462 1.358.317.308.746.462 1.288.462zm9.514 1.008c-.448 0-.84-.089-1.176-.266s-.597-.429-.784-.756c-.186-.327-.28-.709-.28-1.148v-6.902h-2.66v-1.148h3.92v8.05c0 .317.089.569.266.756.178.177.416.266.714.266h2.38v1.148zm7.275.14c-.607 0-1.139-.121-1.596-.364-.448-.243-.798-.583-1.05-1.022-.243-.448-.364-.966-.364-1.554v-2.1c0-.597.121-1.115.364-1.554.252-.439.602-.779 1.05-1.022.457-.243.989-.364 1.596-.364s1.134.121 1.582.364c.457.243.807.583 1.05 1.022.252.439.378.957.378 1.554v1.358h-4.788v.742c0 .607.154 1.073.462 1.4.308.317.747.476 1.316.476.485 0 .877-.084 1.176-.252.299-.177.481-.439.546-.784h1.26c-.084.644-.401 1.157-.952 1.54-.541.373-1.218.56-2.03.56zm1.778-4.522v-.518c0-.607-.154-1.073-.462-1.4-.299-.327-.737-.49-1.316-.49-.569 0-1.008.163-1.316.49s-.462.793-.462 1.4v.406h3.654zm5.944 4.522c-.812 0-1.451-.205-1.918-.616-.466-.42-.7-.985-.7-1.694 0-.719.234-1.283.7-1.694.467-.411 1.097-.616 1.89-.616h2.38v-.77c0-.467-.144-.831-.434-1.092-.28-.261-.672-.392-1.176-.392-.448 0-.826.098-1.134.294s-.499.453-.574.77h-1.26c.047-.429.201-.807.462-1.134.271-.327.621-.579 1.05-.756.439-.187.924-.28 1.456-.28.887 0 1.587.229 2.1.686.514.457.77 1.078.77 1.862v5.292h-1.232v-1.47h-.21l.21-.21c0 .56-.219 1.003-.658 1.33-.429.327-1.003.49-1.722.49zm.308-.994c.598 0 1.088-.149 1.47-.448.383-.299.574-.681.574-1.148v-1.092h-2.352c-.42 0-.751.117-.994.35-.242.233-.364.551-.364.952 0 .429.145.77.434 1.022.299.243.71.364 1.232.364zm5.847.854v-7.7h1.26v1.47h.266l-.266.294c0-.607.182-1.073.546-1.4.364-.336.868-.504 1.512-.504.775 0 1.391.238 1.848.714s.686 1.125.686 1.946v5.18h-1.26v-5.04c0-.551-.149-.971-.448-1.26-.289-.299-.686-.448-1.19-.448-.523 0-.938.159-1.246.476-.299.317-.448.775-.448 1.372v4.9z" fill="#c5e478"/><path d="m45.9791 59v-1.148h2.73v-5.404h-2.45v-1.148h3.71v6.552h2.59v1.148zm3.22-9.086c-.308 0-.5507-.0793-.728-.238-.1774-.1587-.266-.3733-.266-.644 0-.28.0886-.4993.266-.658.1773-.168.42-.252.728-.252s.5506.084.728.252c.1773.1587.266.378.266.658 0 .2707-.0887.4853-.266.644-.1774.1587-.42.238-.728.238zm7.7365 9.226c-.7653 0-1.386-.2567-1.862-.77-.4667-.5133-.7-1.2087-.7-2.086v-2.254c0-.8867.2333-1.5867.7-2.1s1.0873-.77 1.862-.77c.6347 0 1.1433.1727 1.526.518s.574.8073.574 1.386l-.252-.294h.28l-.028-1.75v-2.24h1.26v10.22h-1.26v-1.47h-.252l.252-.294c0 .588-.1913 1.0547-.574 1.4-.3827.336-.8913.504-1.526.504zm.42-1.092c.5227 0 .9333-.1633 1.232-.49s.448-.7793.448-1.358v-2.1c0-.5787-.1493-1.0313-.448-1.358s-.7093-.49-1.232-.49c-.532 0-.952.1587-1.26.476s-.462.7747-.462 1.372v2.1c0 .5973.154 1.0547.462 1.372s.728.476 1.26.476zm-8.6045 21.064c-.5227 0-.9894-.0793-1.4-.238-.4107-.168-.7327-.406-.966-.714-.224-.308-.336-.672-.336-1.092h1.288c0 .2893.1353.518.406.686.28.1587.6253.238 1.036.238h.588c.4946 0 .8633-.098 1.106-.294.2426-.2053.364-.476.364-.812 0-.3267-.1167-.5833-.35-.77-.224-.196-.5507-.3267-.98-.392l-1.036-.168c-.7654-.1307-1.33-.3733-1.694-.728s-.546-.8447-.546-1.47c0-.7.224-1.2367.672-1.61.4573-.3733 1.1106-.56 1.96-.56h.532c.784 0 1.4093.1773 1.876.532.476.3453.714.8073.714 1.386h-1.288c0-.2427-.1214-.434-.364-.574-.2334-.1493-.5554-.224-.966-.224h-.532c-.4387 0-.7794.0933-1.022.28-.2334.1773-.35.434-.35.77 0 .56.3966.9053 1.19 1.036l1.036.168c.8306.1307 1.4326.3733 1.806.728.3826.3547.574.868.574 1.54 0 .7093-.2287 1.2693-.686 1.68-.448.4013-1.1294.602-2.044.602zm5.7205-.112v-10.22h1.26v2.52 1.47h.266l-.266.294c0-.6067.182-1.0733.546-1.4.364-.336.868-.504 1.512-.504.7747 0 1.3907.238 1.848.714s.686 1.1247.686 1.946v5.18h-1.26v-5.04c0-.5507-.1493-.9753-.448-1.274-.2893-.308-.686-.462-1.19-.462-.5227 0-.938.1633-1.246.49-.2987.3267-.448.7887-.448 1.386v4.9zm11.3065.112c-.616 0-1.1526-.1167-1.61-.35-.448-.2427-.7933-.5833-1.036-1.022-.2426-.4387-.364-.9613-.364-1.568v-2.044c0-.6067.1214-1.1293.364-1.568.2427-.4387.588-.7747 1.036-1.008.4574-.2427.994-.364 1.61-.364.6254 0 1.162.1213 1.61.364.448.2333.7934.5693 1.036 1.008.2427.4293.364.9473.364 1.554v2.058c0 .6067-.1213 1.1293-.364 1.568-.2426.4387-.588.7793-1.036 1.022-.448.2333-.9846.35-1.61.35zm0-1.12c.5507 0 .98-.154 1.288-.462s.462-.7607.462-1.358v-2.044c0-.5973-.154-1.05-.462-1.358s-.7373-.462-1.288-.462c-.5413 0-.9706.154-1.288.462-.308.308-.462.7607-.462 1.358v2.044c0 .5973.154 1.05.462 1.358.3174.308.7467.462 1.288.462zm5.7206 1.008v-7.7h1.26v1.47h.266l-.266.294c0-.6067.182-1.0733.546-1.4.364-.336.868-.504 1.512-.504.8026 0 1.442.2567 1.918.77.476.504.714 1.19.714 2.058v.532h-1.26v-.42c0-.588-.1494-1.0407-.448-1.358-.2987-.3267-.7327-.49-1.302-.49-.5414 0-.9567.1587-1.246.476-.2894.308-.434.7653-.434 1.372v4.9zm11.9085 0c-.6347 0-1.1433-.182-1.526-.546-.3827-.3733-.574-.868-.574-1.484v-4.522h-2.17v-1.148h2.17v-2.17h1.26v2.17h3.08v1.148h-3.08v4.522c0 .2613.0747.476.224.644.1587.1587.364.238.616.238h2.1v1.148zm4.6145 0v-10.22h1.68l3.122 8.75c-.0186-.2333-.042-.518-.07-.854-.0186-.3453-.0373-.7047-.056-1.078-.0093-.3827-.014-.742-.014-1.078v-5.74h1.218v10.22h-1.68l-3.108-8.75c.0187.224.0374.5087.056.854.0187.336.0327.6953.042 1.078.0187.3733.028.7327.028 1.078v5.74zm10.6626.14c-.812 0-1.4514-.2053-1.918-.616-.4667-.42-.7-.9847-.7-1.694 0-.7187.2333-1.2833.7-1.694.4666-.4107 1.0966-.616 1.8899-.616h2.3798v-.77c0-.4667-.144-.8307-.434-1.092-.28-.2613-.6717-.392-1.1757-.392-.448 0-.826.098-1.134.294s-.4994.4527-.574.77h-1.26c.0466-.4293.2006-.8073.462-1.134.2706-.3267.6206-.5787 1.05-.756.4386-.1867.924-.28 1.456-.28.8867 0 1.5867.2287 2.0997.686.514.4573.77 1.078.77 1.862v5.292h-1.232v-1.47h-.21l.21-.21c0 .56-.219 1.0033-.658 1.33-.4291.3267-1.0031.49-1.7217.49zm.308-.994c.5973 0 1.0877-.1493 1.4697-.448.383-.2987.574-.6813.574-1.148v-1.092h-2.3517c-.42 0-.7514.1167-.994.35-.2427.2333-.364.5507-.364.952 0 .4293.1446.77.434 1.022.2986.2427.7093.364 1.232.364zm5.3987.854v-7.7h1.106v.924h.252l-.196.336c0-.4107.121-.7467.364-1.008.242-.2613.56-.392.952-.392.41 0 .742.168.994.504.261.336.392.7747.392 1.316l-.378-.756h.588l-.266.336c0-.4107.121-.7467.364-1.008.252-.2613.578-.392.98-.392.466 0 .844.1867 1.134.56.289.364.434.84.434 1.428v5.852h-1.162v-5.866c0-.3267-.075-.574-.224-.742-.14-.1773-.346-.266-.616-.266-.271 0-.481.0887-.63.266-.15.168-.224.4107-.224.728v5.88h-1.008v-5.866c0-.3267-.08-.574-.238-.742-.15-.1773-.36-.266-.63-.266-.262 0-.467.0887-.616.266-.14.168-.21.4107-.21.728v5.88zm11.754.14c-.606 0-1.138-.1213-1.596-.364-.448-.2427-.798-.5833-1.05-1.022-.242-.448-.364-.966-.364-1.554v-2.1c0-.5973.122-1.1153.364-1.554.252-.4387.602-.7793 1.05-1.022.458-.2427.99-.364 1.596-.364.607 0 1.134.1213 1.582.364.458.2427.808.5833 1.05 1.022.252.4387.378.9567.378 1.554v1.358h-4.788v.742c0 .6067.154 1.0733.462 1.4.308.3173.747.476 1.316.476.486 0 .878-.084 1.176-.252.299-.1773.481-.4387.546-.784h1.26c-.084.644-.401 1.1573-.952 1.54-.541.3733-1.218.56-2.03.56zm1.778-4.522v-.518c0-.6067-.154-1.0733-.462-1.4-.298-.3267-.737-.49-1.316-.49-.569 0-1.008.1633-1.316.49s-.462.7933-.462 1.4v.406h3.654zm-70.0539 24.382v-5.782h-2.24v-1.148h2.24v-1.33c0-.6067.1913-1.0827.574-1.428.3826-.3547.91-.532 1.582-.532h2.254v1.148h-2.254c-.2894 0-.5134.07-.672.21-.1494.1307-.224.3313-.224.602v1.33h3.15v1.148h-3.15v5.782zm9.5005.14c-.8867 0-1.596-.2613-2.128-.784-.532-.532-.798-1.2507-.798-2.156v-4.9h1.26v4.9c0 .5787.1493 1.0313.448 1.358.2987.3173.7047.476 1.218.476.5227 0 .9333-.1587 1.232-.476.308-.3267.462-.7793.462-1.358v-4.9h1.26v4.9c0 .9053-.2707 1.624-.812 2.156-.5413.5227-1.2553.784-2.142.784zm9.5285-.14c-.448 0-.84-.0887-1.176-.266s-.5973-.4293-.784-.756c-.1866-.3267-.28-.7093-.28-1.148v-6.902h-2.66v-1.148h3.92v8.05c0 .3173.0887.5693.266.756.1774.1773.4154.266.714.266h2.38v1.148zm8.3946 0c-.448 0-.84-.0887-1.176-.266s-.5974-.4293-.784-.756c-.1867-.3267-.28-.7093-.28-1.148v-6.902h-2.66v-1.148h3.92v8.05c0 .3173.0886.5693.266.756.1773.1773.4153.266.714.266h2.38v1.148zm4.3345 0v-10.22h1.68l3.122 8.75c-.0187-.2333-.042-.518-.07-.854-.0187-.3453-.0373-.7047-.056-1.078-.0093-.3827-.014-.742-.014-1.078v-5.74h1.218v10.22h-1.68l-3.108-8.75c.0187.224.0373.5087.056.854.0187.336.0327.6953.042 1.078.0187.3733.028.7327.028 1.078v5.74zm10.6625.14c-.812 0-1.4513-.2053-1.918-.616-.4666-.42-.7-.9847-.7-1.694 0-.7187.2334-1.2833.7-1.694.4667-.4107 1.0967-.616 1.89-.616h2.38v-.77c0-.4667-.1446-.8307-.434-1.092-.28-.2613-.672-.392-1.176-.392-.448 0-.826.098-1.134.294s-.4993.4527-.574.77h-1.26c.0467-.4293.2007-.8073.462-1.134.2707-.3267.6207-.5787 1.05-.756.4387-.1867.924-.28 1.456-.28.8867 0 1.5867.2287 2.1.686.5134.4573.77 1.078.77 1.862v5.292h-1.232v-1.47h-.21l.21-.21c0 .56-.2193 1.0033-.658 1.33-.4293.3267-1.0033.49-1.722.49zm.308-.994c.5974 0 1.0874-.1493 1.47-.448.3827-.2987.574-.6813.574-1.148v-1.092h-2.352c-.42 0-.7513.1167-.994.35-.2426.2333-.364.5507-.364.952 0 .4293.1447.77.434 1.022.2987.2427.7094.364 1.232.364zm5.3986.854v-7.7h1.106v.924h.252l-.196.336c0-.4107.1213-.7467.364-1.008.2426-.2613.56-.392.952-.392.4106 0 .742.168.994.504.2613.336.392.7747.392 1.316l-.378-.756h.5877l-.2657.336c0-.4107.1213-.7467.3637-1.008.252-.2613.579-.392.98-.392.467 0 .845.1867 1.134.56.29.364.434.84.434 1.428v5.852h-1.162v-5.866c0-.3267-.074-.574-.224-.742-.14-.1773-.345-.266-.616-.266-.27 0-.48.0887-.63.266-.1491.168-.2237.4107-.2237.728v5.88h-1.0081v-5.866c0-.3267-.0793-.574-.2379-.742-.1494-.1773-.3594-.266-.63-.266-.2614 0-.4667.0887-.616.266-.14.168-.21.4107-.21.728v5.88zm11.7547.14c-.607 0-1.139-.1213-1.596-.364-.448-.2427-.798-.5833-1.05-1.022-.243-.448-.364-.966-.364-1.554v-2.1c0-.5973.121-1.1153.364-1.554.252-.4387.602-.7793 1.05-1.022.457-.2427.989-.364 1.596-.364.606 0 1.134.1213 1.582.364.457.2427.807.5833 1.05 1.022.252.4387.378.9567.378 1.554v1.358h-4.788v.742c0 .6067.154 1.0733.462 1.4.308.3173.746.476 1.316.476.485 0 .877-.084 1.176-.252.298-.1773.48-.4387.546-.784h1.26c-.084.644-.402 1.1573-.952 1.54-.542.3733-1.218.56-2.03.56zm1.778-4.522v-.518c0-.6067-.154-1.0733-.462-1.4-.299-.3267-.738-.49-1.316-.49-.57 0-1.008.1633-1.316.49s-.462.7933-.462 1.4v.406h3.654zm-60.5539 24.522c-.8867 0-1.596-.261-2.128-.784-.532-.532-.798-1.251-.798-2.156v-4.9h1.26v4.9c0 .579.1493 1.031.448 1.358.2986.317.7046.476 1.218.476.5226 0 .9333-.159 1.232-.476.308-.327.462-.779.462-1.358v-4.9h1.26v4.9c0 .905-.2707 1.624-.812 2.156-.5414.523-1.2554.784-2.142.784zm5.7345-.14v-7.7h1.26v1.47h.266l-.266.294c0-.607.182-1.073.546-1.4.364-.336.868-.504 1.512-.504.8027 0 1.442.257 1.918.77.476.504.714 1.19.714 2.058v.532h-1.26v-.42c0-.588-.1493-1.041-.448-1.358-.2987-.327-.7327-.49-1.302-.49-.5413 0-.9567.159-1.246.476-.2893.308-.434.765-.434 1.372v4.9zm12.1885 0c-.448 0-.84-.089-1.176-.266s-.5973-.429-.784-.756c-.1866-.327-.28-.709-.28-1.148v-6.902h-2.66v-1.148h3.92v8.05c0 .317.0887.569.266.756.1774.177.4154.266.714.266h2.38v1.148zm-20.583 20v-7.7h1.26v1.47h.266l-.266.294c0-.607.182-1.073.546-1.4.364-.336.868-.504 1.512-.504.8026 0 1.442.257 1.918.77.476.504.714 1.19.714 2.058v.532h-1.26v-.42c0-.588-.1494-1.041-.448-1.358-.2987-.327-.7327-.49-1.302-.49-.5414 0-.9567.159-1.246.476-.2894.308-.434.765-.434 1.372v4.9zm11.0685.14c-.6067 0-1.1387-.121-1.596-.364-.448-.243-.798-.583-1.05-1.022-.2427-.448-.364-.966-.364-1.554v-2.1c0-.597.1213-1.115.364-1.554.252-.439.602-.779 1.05-1.022.4573-.243.9893-.364 1.596-.364s1.134.121 1.582.364c.4573.243.8073.583 1.05 1.022.252.439.378.957.378 1.554v1.358h-4.788v.742c0 .607.154 1.073.462 1.4.308.317.7467.476 1.316.476.4853 0 .8773-.084 1.176-.252.2987-.177.4807-.439.546-.784h1.26c-.084.644-.4013 1.157-.952 1.54-.5413.373-1.218.56-2.03.56zm1.778-4.522v-.518c0-.607-.154-1.073-.462-1.4-.2987-.327-.7373-.49-1.316-.49-.5693 0-1.008.163-1.316.49s-.462.793-.462 1.4v.406h3.654zm8.2685 6.902v-2.24l.028-1.75h-.28l.252-.294c0 .579-.1913 1.041-.574 1.386-.3826.345-.8913.518-1.526.518-.7746 0-1.3906-.257-1.848-.77-.448-.513-.672-1.213-.672-2.1v-2.254c0-.887.2287-1.582.686-2.086.4574-.513 1.0687-.77 1.834-.77.6347 0 1.1434.173 1.526.518.3827.336.574.798.574 1.386l-.252-.294h.252v-1.47h1.26v10.22zm-1.68-3.472c.5227 0 .9334-.163 1.232-.49.2987-.327.448-.779.448-1.358v-2.1c0-.579-.1493-1.031-.448-1.358-.2986-.327-.7093-.49-1.232-.49-.532 0-.9473.159-1.246.476-.2893.317-.434.775-.434 1.372v2.1c0 .597.1447 1.055.434 1.372.2987.317.714.476 1.246.476zm8.4086 1.092c-.8867 0-1.596-.261-2.128-.784-.532-.532-.798-1.251-.798-2.156v-4.9h1.26v4.9c0 .579.1493 1.031.448 1.358.2986.317.7046.476 1.218.476.5226 0 .9333-.159 1.232-.476.308-.327.462-.779.462-1.358v-4.9h1.26v4.9c0 .905-.2707 1.624-.812 2.156-.5414.523-1.2554.784-2.142.784zm5.3985-.14v-1.148h2.73v-5.404h-2.45v-1.148h3.71v6.552h2.59v1.148zm3.22-9.086c-.308 0-.5507-.079-.728-.238s-.266-.373-.266-.644c0-.28.0887-.499.266-.658.1773-.168.42-.252.728-.252s.5507.084.728.252c.1773.159.266.378.266.658 0 .271-.0887.485-.266.644s-.42.238-.728.238zm5.5105 9.086v-7.7h1.26v1.47h.266l-.266.294c0-.607.182-1.073.546-1.4.364-.336.868-.504 1.512-.504.8027 0 1.442.257 1.918.77.476.504.714 1.19.714 2.058v.532h-1.26v-.42c0-.588-.1493-1.041-.448-1.358-.2986-.327-.7326-.49-1.302-.49-.5413 0-.9566.159-1.246.476-.2893.308-.434.765-.434 1.372v4.9zm11.0686.14c-.6067 0-1.1387-.121-1.596-.364-.448-.243-.798-.583-1.05-1.022-.2427-.448-.364-.966-.364-1.554v-2.1c0-.597.1213-1.115.364-1.554.252-.439.602-.779 1.05-1.022.4573-.243.9893-.364 1.596-.364.6066 0 1.1337.121 1.5817.364.458.243.808.583 1.05 1.022.252.439.378.957.378 1.554v1.358h-4.7877v.742c0 .607.154 1.073.462 1.4.308.317.7466.476 1.316.476.4853 0 .8777-.084 1.1757-.252.299-.177.481-.439.546-.784h1.26c-.084.644-.401 1.157-.952 1.54-.541.373-1.218.56-2.0297.56zm1.7777-4.522v-.518c0-.607-.154-1.073-.462-1.4-.298-.327-.7371-.49-1.3157-.49-.5694 0-1.008.163-1.316.49s-.462.793-.462 1.4v.406h3.6537zm6.169 4.522c-.766 0-1.386-.257-1.862-.77-.467-.513-.7-1.209-.7-2.086v-2.254c0-.887.233-1.587.7-2.1.466-.513 1.087-.77 1.862-.77.634 0 1.143.173 1.526.518.382.345.574.807.574 1.386l-.252-.294h.28l-.028-1.75v-2.24h1.26v10.22h-1.26v-1.47h-.252l.252-.294c0 .588-.192 1.055-.574 1.4-.383.336-.892.504-1.526.504zm.42-1.092c.522 0 .933-.163 1.232-.49.298-.327.448-.779.448-1.358v-2.1c0-.579-.15-1.031-.448-1.358-.299-.327-.71-.49-1.232-.49-.532 0-.952.159-1.26.476s-.462.775-.462 1.372v2.1c0 .597.154 1.055.462 1.372s.728.476 1.26.476zm4.922.952 2.66-10.22h1.694l2.646 10.22h-1.274l-.672-2.716h-3.094l-.672 2.716zm2.212-3.78h2.576l-.784-3.15c-.149-.597-.266-1.097-.35-1.498s-.135-.663-.154-.784c-.018.121-.07.383-.154.784s-.2.896-.35 1.484zm10.523 3.78c-.635 0-1.143-.182-1.526-.546-.383-.373-.574-.868-.574-1.484v-4.522h-2.17v-1.148h2.17v-2.17h1.26v2.17h3.08v1.148h-3.08v4.522c0 .261.075.476.224.644.159.159.364.238.616.238h2.1v1.148zm8.394 0c-.634 0-1.143-.182-1.526-.546-.382-.373-.574-.868-.574-1.484v-4.522h-2.17v-1.148h2.17v-2.17h1.26v2.17h3.08v1.148h-3.08v4.522c0 .261.075.476.224.644.159.159.364.238.616.238h2.1v1.148zm4.881 0v-7.7h1.26v1.47h.266l-.266.294c0-.607.182-1.073.546-1.4.364-.336.868-.504 1.512-.504.803 0 1.442.257 1.918.77.476.504.714 1.19.714 2.058v.532h-1.26v-.42c0-.588-.149-1.041-.448-1.358-.299-.327-.733-.49-1.302-.49-.541 0-.957.159-1.246.476-.289.308-.434.765-.434 1.372v4.9zm8.058 0v-1.148h2.73v-5.404h-2.45v-1.148h3.71v6.552h2.59v1.148zm3.22-9.086c-.308 0-.55-.079-.728-.238-.177-.159-.266-.373-.266-.644 0-.28.089-.499.266-.658.178-.168.42-.252.728-.252s.551.084.728.252c.178.159.266.378.266.658 0 .271-.088.485-.266.644-.177.159-.42.238-.728.238zm8.633 9.226c-.635 0-1.143-.168-1.526-.504-.383-.345-.574-.812-.574-1.4l.252.294h-.252v1.47h-1.26v-10.22h1.26v2.24l-.028 1.75h.28l-.252.294c0-.579.191-1.041.574-1.386.392-.345.901-.518 1.526-.518.775 0 1.395.257 1.862.77s.7 1.213.7 2.1v2.254c0 .877-.233 1.573-.7 2.086s-1.087.77-1.862.77zm-.42-1.092c.532 0 .952-.159 1.26-.476s.462-.775.462-1.372v-2.1c0-.597-.154-1.055-.462-1.372s-.728-.476-1.26-.476c-.513 0-.924.163-1.232.49-.299.327-.448.779-.448 1.358v2.1c0 .579.149 1.031.448 1.358.308.327.719.49 1.232.49zm8.353 1.092c-.887 0-1.596-.261-2.129-.784-.531-.532-.797-1.251-.797-2.156v-4.9h1.26v4.9c0 .579.149 1.031.448 1.358.298.317.704.476 1.218.476.522 0 .933-.159 1.232-.476.308-.327.462-.779.462-1.358v-4.9h1.26v4.9c0 .905-.271 1.624-.812 2.156-.542.523-1.256.784-2.142.784zm9.248-.14c-.635 0-1.143-.182-1.526-.546-.383-.373-.574-.868-.574-1.484v-4.522h-2.17v-1.148h2.17v-2.17h1.26v2.17h3.08v1.148h-3.08v4.522c0 .261.075.476.224.644.159.159.364.238.616.238h2.1v1.148zm4.545 0v-1.148h2.73v-5.404h-2.45v-1.148h3.71v6.552h2.59v1.148zm3.22-9.086c-.308 0-.551-.079-.728-.238-.178-.159-.266-.373-.266-.644 0-.28.088-.499.266-.658.177-.168.42-.252.728-.252s.55.084.728.252c.177.159.266.378.266.658 0 .271-.089.485-.266.644-.178.159-.42.238-.728.238zm8.184 9.198c-.616 0-1.153-.117-1.61-.35-.448-.243-.793-.583-1.036-1.022s-.364-.961-.364-1.568v-2.044c0-.607.121-1.129.364-1.568s.588-.775 1.036-1.008c.457-.243.994-.364 1.61-.364.625 0 1.162.121 1.61.364.448.233.793.569 1.036 1.008.243.429.364.947.364 1.554v2.058c0 .607-.121 1.129-.364 1.568s-.588.779-1.036 1.022c-.448.233-.985.35-1.61.35zm0-1.12c.551 0 .98-.154 1.288-.462s.462-.761.462-1.358v-2.044c0-.597-.154-1.05-.462-1.358s-.737-.462-1.288-.462c-.541 0-.971.154-1.288.462-.308.308-.462.761-.462 1.358v2.044c0 .597.154 1.05.462 1.358.317.308.747.462 1.288.462zm5.483 1.008v-7.7h1.26v1.47h.266l-.266.294c0-.607.182-1.073.546-1.4.364-.336.868-.504 1.512-.504.774 0 1.39.238 1.848.714.457.476.686 1.125.686 1.946v5.18h-1.26v-5.04c0-.551-.15-.971-.448-1.26-.29-.299-.686-.448-1.19-.448-.523 0-.938.159-1.246.476-.299.317-.448.775-.448 1.372v4.9z" fill="#82aaff"/><path d="m198.333 75c0 1.4728 1.194 2.6667 2.667 2.6667s2.667-1.1939 2.667-2.6667-1.194-2.6667-2.667-2.6667-2.667 1.1939-2.667 2.6667zm307 0c0 1.4728 1.194 2.6667 2.667 2.6667s2.667-1.1939 2.667-2.6667-1.194-2.6667-2.667-2.6667-2.667 1.1939-2.667 2.6667zm-304.333.5h307v-1h-307z" fill="#ff8c00"/><rect fill="#f00" fill-opacity=".2" height="25" rx="4" width="124" x="508"/><path d="m516.864 18.16c-.704 0-1.323-.1333-1.856-.4-.523-.2667-.928-.6507-1.216-1.152-.288-.512-.432-1.1147-.432-1.808v-2.4c0-.704.144-1.3067.432-1.808s.693-.88533 1.216-1.152c.533-.26667 1.152-.4 1.856-.4 1.013 0 1.829.272 2.448.816s.944 1.2853.976 2.224h-1.44c-.032-.5653-.224-.9973-.576-1.296-.341-.3093-.811-.464-1.408-.464-.629 0-1.131.1813-1.504.544-.373.352-.56.8587-.56 1.52v2.416c0 .6613.187 1.1733.56 1.536s.875.544 1.504.544c.597 0 1.067-.1547 1.408-.464.352-.3093.544-.7413.576-1.296h1.44c-.032.9387-.357 1.68-.976 2.224s-1.435.816-2.448.816zm9.53-.032c-.704 0-1.318-.1333-1.84-.4-.512-.2773-.907-.6667-1.184-1.168-.278-.5013-.416-1.0987-.416-1.792v-2.336c0-.6933.138-1.2907.416-1.792.277-.5013.672-.88533 1.184-1.152.522-.27733 1.136-.416 1.84-.416.714 0 1.328.13867 1.84.416.512.26667.906.6507 1.184 1.152.277.4907.416 1.0827.416 1.776v2.352c0 .6933-.139 1.2907-.416 1.792-.278.5013-.672.8907-1.184 1.168-.512.2667-1.126.4-1.84.4zm0-1.28c.629 0 1.12-.176 1.472-.528s.528-.8693.528-1.552v-2.336c0-.6827-.176-1.2-.528-1.552s-.843-.528-1.472-.528c-.619 0-1.11.176-1.472.528-.352.352-.528.8693-.528 1.552v2.336c0 .6827.176 1.2.528 1.552.362.352.853.528 1.472.528zm6.282 4.032v-11.68h1.44v1.68h.288l-.288.336c0-.672.218-1.2.656-1.584.448-.39467 1.034-.592 1.76-.592.885 0 1.589.29333 2.112.88.533.576.8 1.3707.8 2.384v2.576c0 .672-.123 1.2533-.368 1.744-.235.4907-.571.8693-1.008 1.136-.427.2667-.939.4-1.536.4-.715 0-1.296-.1973-1.744-.592s-.672-.9227-.672-1.584l.288.336h-.32l.032 2v2.56zm3.376-3.968c.608 0 1.082-.1813 1.424-.544.352-.3627.528-.8853.528-1.568v-2.4c0-.6827-.176-1.2053-.528-1.568-.342-.3627-.816-.544-1.424-.544-.587 0-1.056.1867-1.408.56s-.528.8907-.528 1.552v2.4c0 .6613.176 1.1787.528 1.552s.821.56 1.408.56zm7.593 3.968 1.296-3.424-3.36-8.256h1.568l2.144 5.44c.075.1813.144.4.208.656.075.2453.134.4533.176.624.043-.1707.102-.3787.176-.624.075-.256.15-.4747.224-.656l2-5.44h1.504l-4.432 11.68zm8.474-2.88v-8.8h1.44v1.68h.304l-.304.336c0-.6933.208-1.22667.624-1.6.416-.384.992-.576 1.728-.576.917 0 1.648.29333 2.192.88.544.576.816 1.36.816 2.352v.608h-1.44v-.48c0-.672-.171-1.1893-.512-1.552-.341-.3733-.837-.56-1.488-.56-.619 0-1.093.1813-1.424.544-.331.352-.496.8747-.496 1.568v5.6zm9.21 0v-1.312h3.12v-6.176h-2.8v-1.312h4.24v7.488h2.96v1.312zm3.68-10.384c-.352 0-.63-.09067-.832-.272-.203-.18133-.304-.42667-.304-.736 0-.32.101-.57067.304-.752.202-.192.48-.288.832-.288s.629.096.832.288c.202.18133.304.432.304.752 0 .30933-.102.55467-.304.736-.203.18133-.48.272-.832.272zm7.13 13.264v-1.312h2.8c.448 0 .773-.1013.976-.304.213-.2027.32-.5173.32-.944v-1.12l.032-1.6h-.288l.272-.24c0 .64-.214 1.1467-.64 1.52-.427.3733-.998.56-1.712.56-.907 0-1.622-.2933-2.144-.88-.523-.5973-.784-1.3973-.784-2.4v-1.856c0-1.0027.261-1.7973.784-2.384.522-.58667 1.237-.88 2.144-.88.714 0 1.285.18667 1.712.56.426.37333.64.88.64 1.52l-.272-.24h.272v-1.68h1.424v9.12c0 .7893-.246 1.4133-.736 1.872-.48.4587-1.152.688-2.016.688zm2.192-4.688c.597 0 1.066-.1867 1.408-.56.341-.3733.512-.8907.512-1.552v-1.68c0-.6613-.171-1.1787-.512-1.552-.342-.3733-.811-.56-1.408-.56-.608 0-1.083.1813-1.424.544-.331.3627-.496.8853-.496 1.568v1.68c0 .6827.165 1.2053.496 1.568.341.3627.816.544 1.424.544zm6.297 1.808v-11.68h1.44v2.88 1.68h.304l-.304.336c0-.6933.208-1.22667.624-1.6.416-.384.992-.576 1.728-.576.886 0 1.59.272 2.112.816.523.544.784 1.2853.784 2.224v5.92h-1.44v-5.76c0-.6293-.17-1.1147-.512-1.456-.33-.352-.784-.528-1.36-.528-.597 0-1.072.1867-1.424.56-.341.3733-.512.9013-.512 1.584v5.6zm13.882 0c-.725 0-1.307-.208-1.744-.624-.437-.4267-.656-.992-.656-1.696v-5.168h-2.48v-1.312h2.48v-2.48h1.44v2.48h3.52v1.312h-3.52v5.168c0 .2987.085.544.256.736.181.1813.416.272.704.272h2.4v1.312zm14.788 0v-1.312h3.12v-6.176h-2.8v-1.312h4.24v7.488h2.96v1.312zm3.68-10.384c-.352 0-.63-.09067-.832-.272-.203-.18133-.304-.42667-.304-.736 0-.32.101-.57067.304-.752.202-.192.48-.288.832-.288s.629.096.832.288c.202.18133.304.432.304.752 0 .30933-.102.55467-.304.736-.203.18133-.48.272-.832.272zm8.841 10.544c-.874 0-1.584-.2933-2.128-.88-.533-.5867-.8-1.3813-.8-2.384v-2.576c0-1.0133.267-1.8133.8-2.4.534-.58667 1.243-.88 2.128-.88.726 0 1.307.19733 1.744.592.438.3947.656.9227.656 1.584l-.288-.336h.32l-.032-2v-2.56h1.44v11.68h-1.44v-1.68h-.288l.288-.336c0 .672-.218 1.2053-.656 1.6-.437.384-1.018.576-1.744.576zm.48-1.248c.598 0 1.067-.1867 1.408-.56.342-.3733.512-.8907.512-1.552v-2.4c0-.6613-.17-1.1787-.512-1.552-.341-.3733-.81-.56-1.408-.56-.608 0-1.088.1813-1.44.544s-.528.8853-.528 1.568v2.4c0 .6827.176 1.2053.528 1.568s.832.544 1.44.544z" fill="#f00"/><path d="m139.333 56c0 1.4728 1.194 2.6667 2.667 2.6667s2.667-1.1939 2.667-2.6667-1.194-2.6667-2.667-2.6667-2.667 1.1939-2.667 2.6667zm354.956-29.2893.34.3666.007-.0064.007-.0067zm11.044-13.7107c0 1.4728 1.194 2.6667 2.667 2.6667s2.667-1.1939 2.667-2.6667-1.194-2.6667-2.667-2.6667-2.667 1.1939-2.667 2.6667zm-41.91 39.194-.191-.462zm30.866-25.4831-.34-.3666-.007.0064-.006.0067zm-352.289 29.7891h281.579v-1h-281.579zm352.643-29.4358 13.711-13.7106-.708-.7072-13.71 13.7107zm-71.064 29.4358c20.396 0 30.734.0089 40.036-3.8441l-.383-.9239c-9.075 3.7591-19.175 3.768-39.653 3.768zm70.37-30.156v.0003l.68.7333v-.0003zm-.013.0134c-14.481 14.4802-21.629 21.6155-30.704 25.3746l.383.9239c9.302-3.8529 16.605-11.1689 31.028-25.5914z" fill="#f00"/><g fill="#ff8c00"><path d="m198.333 94c0 1.4728 1.194 2.6667 2.667 2.6667s2.667-1.1939 2.667-2.6667-1.194-2.6667-2.667-2.6667-2.667 1.1939-2.667 2.6667zm307 43c0 1.473 1.194 2.667 2.667 2.667s2.667-1.194 2.667-2.667-1.194-2.667-2.667-2.667-2.667 1.194-2.667 2.667zm-11.044-13.711-.353.354zm-30.866-25.483.192-.4619zm-262.423-3.306h222.579v-1h-222.579zm292.936 29.143 13.71 13.711.708-.708-13.711-13.71zm-70.357-29.143c20.478 0 30.578.0089 39.653 3.768l.383-.9239c-9.302-3.853-19.64-3.8441-40.036-3.8441zm71.064 28.436c-14.423-14.423-21.726-21.739-31.028-25.5919l-.383.9239c9.075 3.759 16.223 10.895 30.704 25.375z"/><path d="m298.833 135c0 1.473 1.194 2.667 2.667 2.667s2.667-1.194 2.667-2.667-1.194-2.667-2.667-2.667-2.667 1.194-2.667 2.667zm206.5 60c0 1.473 1.194 2.667 2.667 2.667s2.667-1.194 2.667-2.667-1.194-2.667-2.667-2.667-2.667 1.194-2.667 2.667zm-58.91-56.194.192-.462zm-144.923-3.306h105.079v-1h-105.079zm175.436 29.143 30.71 30.711.708-.708-30.711-30.71zm-70.357-29.143c20.478 0 30.578.009 39.653 3.768l.383-.924c-9.302-3.853-19.64-3.844-40.036-3.844zm71.064 28.436c-14.423-14.423-21.726-21.739-31.028-25.592l-.383.924c9.075 3.759 16.223 10.895 30.704 25.375z"/><path d="m517.68 81v-1.312h2.384v-9.056h-2.384v-1.312h6.24v1.312h-2.384v9.056h2.384v1.312zm12.442.128c-.598 0-1.131-.0907-1.6-.272-.47-.192-.838-.464-1.104-.816-.256-.352-.384-.768-.384-1.248h1.472c0 .3307.154.592.464.784.32.1813.714.272 1.184.272h.672c.565 0 .986-.112 1.264-.336.277-.2347.416-.544.416-.928 0-.3733-.134-.6667-.4-.88-.256-.224-.63-.3733-1.12-.448l-1.184-.192c-.875-.1493-1.52-.4267-1.936-.832s-.624-.9653-.624-1.68c0-.8.256-1.4133.768-1.84.522-.4267 1.269-.64 2.24-.64h.608c.896 0 1.61.2027 2.144.608.544.3947.816.9227.816 1.584h-1.472c0-.2773-.139-.496-.416-.656-.267-.1707-.635-.256-1.104-.256h-.608c-.502 0-.891.1067-1.168.32-.267.2027-.4.496-.4.88 0 .64.453 1.0347 1.36 1.184l1.184.192c.949.1493 1.637.4267 2.064.832.437.4053.656.992.656 1.76 0 .8107-.262 1.4507-.784 1.92-.512.4587-1.291.688-2.336.688zm18.947.032c-.874 0-1.584-.2933-2.128-.88-.533-.5867-.8-1.3813-.8-2.384v-2.576c0-1.0133.267-1.8133.8-2.4.534-.5867 1.243-.88 2.128-.88.726 0 1.307.1973 1.744.592.438.3947.656.9227.656 1.584l-.288-.336h.32l-.032-2v-2.56h1.44v11.68h-1.44v-1.68h-.288l.288-.336c0 .672-.218 1.2053-.656 1.6-.437.384-1.018.576-1.744.576zm.48-1.248c.598 0 1.067-.1867 1.408-.56.342-.3733.512-.8907.512-1.552v-2.4c0-.6613-.17-1.1787-.512-1.552-.341-.3733-.81-.56-1.408-.56-.608 0-1.088.1813-1.44.544s-.528.8853-.528 1.568v2.4c0 .6827.176 1.2053.528 1.568s.832.544 1.44.544zm6.186 1.088v-1.312h3.12v-6.176h-2.8v-1.312h4.24v7.488h2.96v1.312zm3.68-10.384c-.352 0-.629-.0907-.832-.272s-.304-.4267-.304-.736c0-.32.101-.5707.304-.752.203-.192.48-.288.832-.288s.629.096.832.288c.203.1813.304.432.304.752 0 .3093-.101.5547-.304.736s-.48.272-.832.272zm9.082 10.512c-.598 0-1.131-.0907-1.6-.272-.47-.192-.838-.464-1.104-.816-.256-.352-.384-.768-.384-1.248h1.472c0 .3307.154.592.464.784.32.1813.714.272 1.184.272h.672c.565 0 .986-.112 1.264-.336.277-.2347.416-.544.416-.928 0-.3733-.134-.6667-.4-.88-.256-.224-.63-.3733-1.12-.448l-1.184-.192c-.875-.1493-1.52-.4267-1.936-.832s-.624-.9653-.624-1.68c0-.8.256-1.4133.768-1.84.522-.4267 1.269-.64 2.24-.64h.608c.896 0 1.61.2027 2.144.608.544.3947.816.9227.816 1.584h-1.472c0-.2773-.139-.496-.416-.656-.267-.1707-.635-.256-1.104-.256h-.608c-.502 0-.891.1067-1.168.32-.267.2027-.4.496-.4.88 0 .64.453 1.0347 1.36 1.184l1.184.192c.949.1493 1.637.4267 2.064.832.437.4053.656.992.656 1.76 0 .8107-.262 1.4507-.784 1.92-.512.4587-1.291.688-2.336.688zm6.554 2.752v-11.68h1.44v1.68h.288l-.288.336c0-.672.218-1.2.656-1.584.448-.3947 1.034-.592 1.76-.592.885 0 1.589.2933 2.112.88.533.576.8 1.3707.8 2.384v2.576c0 .672-.123 1.2533-.368 1.744-.235.4907-.571.8693-1.008 1.136-.427.2667-.939.4-1.536.4-.715 0-1.296-.1973-1.744-.592s-.672-.9227-.672-1.584l.288.336h-.32l.032 2v2.56zm3.376-3.968c.608 0 1.082-.1813 1.424-.544.352-.3627.528-.8853.528-1.568v-2.4c0-.6827-.176-1.2053-.528-1.568-.342-.3627-.816-.544-1.424-.544-.587 0-1.056.1867-1.408.56s-.528.8907-.528 1.552v2.4c0 .6613.176 1.1787.528 1.552s.821.56 1.408.56zm10.809 1.088c-.512 0-.96-.1013-1.344-.304s-.682-.4907-.896-.864c-.213-.3733-.32-.8107-.32-1.312v-7.888h-3.04v-1.312h4.48v9.2c0 .3627.102.6507.304.864.203.2027.475.304.816.304h2.72v1.312zm7.546.16c-.928 0-1.659-.2347-2.192-.704-.533-.48-.8-1.1253-.8-1.936 0-.8213.267-1.4667.8-1.936s1.253-.704 2.16-.704h2.72v-.88c0-.5333-.165-.9493-.496-1.248-.32-.2987-.768-.448-1.344-.448-.512 0-.944.112-1.296.336s-.571.5173-.656.88h-1.44c.053-.4907.229-.9227.528-1.296.309-.3733.709-.6613 1.2-.864.501-.2133 1.056-.32 1.664-.32 1.013 0 1.813.2613 2.4.784s.88 1.232.88 2.128v6.048h-1.408v-1.68h-.24l.24-.24c0 .64-.251 1.1467-.752 1.52-.491.3733-1.147.56-1.968.56zm.352-1.136c.683 0 1.243-.1707 1.68-.512s.656-.7787.656-1.312v-1.248h-2.688c-.48 0-.859.1333-1.136.4s-.416.6293-.416 1.088c0 .4907.165.88.496 1.168.341.2773.811.416 1.408.416zm8.074 3.856 1.296-3.424-3.36-8.256h1.568l2.144 5.44c.074.1813.144.4.208.656.074.2453.133.4533.176.624.042-.1707.101-.3787.176-.624.074-.256.149-.4747.224-.656l2-5.44h1.504l-4.432 11.68zm11.53-2.72c-.694 0-1.302-.1387-1.824-.416-.512-.2773-.912-.6667-1.2-1.168-.278-.512-.416-1.104-.416-1.776v-2.4c0-.6827.138-1.2747.416-1.776.288-.5013.688-.8907 1.2-1.168.522-.2773 1.13-.416 1.824-.416.693 0 1.296.1387 1.808.416.522.2773.922.6667 1.2 1.168.288.5013.432 1.0933.432 1.776v1.552h-5.472v.848c0 .6933.176 1.2267.528 1.6.352.3627.853.544 1.504.544.554 0 1.002-.096 1.344-.288.341-.2027.549-.5013.624-.896h1.44c-.096.736-.459 1.3227-1.088 1.76-.619.4267-1.392.64-2.32.64zm2.032-5.168v-.592c0-.6933-.176-1.2267-.528-1.6-.342-.3733-.843-.56-1.504-.56-.651 0-1.152.1867-1.504.56s-.528.9067-.528 1.6v.464h4.176zm7.049 5.168c-.874 0-1.584-.2933-2.128-.88-.533-.5867-.8-1.3813-.8-2.384v-2.576c0-1.0133.267-1.8133.8-2.4.534-.5867 1.243-.88 2.128-.88.726 0 1.307.1973 1.744.592.438.3947.656.9227.656 1.584l-.288-.336h.32l-.032-2v-2.56h1.44v11.68h-1.44v-1.68h-.288l.288-.336c0 .672-.218 1.2053-.656 1.6-.437.384-1.018.576-1.744.576zm.48-1.248c.598 0 1.067-.1867 1.408-.56.342-.3733.512-.8907.512-1.552v-2.4c0-.6613-.17-1.1787-.512-1.552-.341-.3733-.81-.56-1.408-.56-.608 0-1.088.1813-1.44.544s-.528.8853-.528 1.568v2.4c0 .6827.176 1.2053.528 1.568s.832.544 1.44.544zm19.22 1.216c-.704 0-1.318-.1333-1.84-.4-.512-.2773-.907-.6667-1.184-1.168-.278-.5013-.416-1.0987-.416-1.792v-2.336c0-.6933.138-1.2907.416-1.792.277-.5013.672-.8853 1.184-1.152.522-.2773 1.136-.416 1.84-.416.714 0 1.328.1387 1.84.416.512.2667.906.6507 1.184 1.152.277.4907.416 1.0827.416 1.776v2.352c0 .6933-.139 1.2907-.416 1.792-.278.5013-.672.8907-1.184 1.168-.512.2667-1.126.4-1.84.4zm0-1.28c.629 0 1.12-.176 1.472-.528s.528-.8693.528-1.552v-2.336c0-.6827-.176-1.2-.528-1.552s-.843-.528-1.472-.528c-.619 0-1.11.176-1.472.528-.352.352-.528.8693-.528 1.552v2.336c0 .6827.176 1.2.528 1.552.362.352.853.528 1.472.528zm6.266 1.152v-8.8h1.44v1.68h.304l-.304.336c0-.6933.208-1.2267.624-1.6.416-.384.992-.576 1.728-.576.885 0 1.589.272 2.112.816.522.544.784 1.2853.784 2.224v5.92h-1.44v-5.76c0-.6293-.171-1.1093-.512-1.44-.331-.3413-.784-.512-1.36-.512-.598 0-1.072.1813-1.424.544-.342.3627-.512.8853-.512 1.568v5.6zm23.475 0c-.725 0-1.307-.208-1.744-.624-.437-.4267-.656-.992-.656-1.696v-5.168h-2.48v-1.312h2.48v-2.48h1.44v2.48h3.52v1.312h-3.52v5.168c0 .2987.085.544.256.736.181.1813.416.272.704.272h2.4v1.312zm5.306 0v-11.68h1.44v2.88 1.68h.304l-.304.336c0-.6933.208-1.2267.624-1.6.416-.384.992-.576 1.728-.576.885 0 1.589.272 2.112.816.522.544.784 1.2853.784 2.224v5.92h-1.44v-5.76c0-.6293-.171-1.1147-.512-1.456-.331-.352-.784-.528-1.36-.528-.598 0-1.072.1867-1.424.56-.342.3733-.512.9013-.512 1.584v5.6zm12.922.16c-.694 0-1.302-.1387-1.824-.416-.512-.2773-.912-.6667-1.2-1.168-.278-.512-.416-1.104-.416-1.776v-2.4c0-.6827.138-1.2747.416-1.776.288-.5013.688-.8907 1.2-1.168.522-.2773 1.13-.416 1.824-.416.693 0 1.296.1387 1.808.416.522.2773.922.6667 1.2 1.168.288.5013.432 1.0933.432 1.776v1.552h-5.472v.848c0 .6933.176 1.2267.528 1.6.352.3627.853.544 1.504.544.554 0 1.002-.096 1.344-.288.341-.2027.549-.5013.624-.896h1.44c-.096.736-.459 1.3227-1.088 1.76-.619.4267-1.392.64-2.32.64zm2.032-5.168v-.592c0-.6933-.176-1.2267-.528-1.6-.342-.3733-.843-.56-1.504-.56-.651 0-1.152.1867-1.504.56s-.528.9067-.528 1.6v.464h4.176zm13.315 5.008v-8.8h1.264v1.056h.288l-.224.384c0-.4693.139-.8533.416-1.152s.64-.448 1.088-.448c.469 0 .848.192 1.136.576.299.384.448.8853.448 1.504l-.432-.864h.672l-.304.384c0-.4693.139-.8533.416-1.152.288-.2987.661-.448 1.12-.448.533 0 .965.2133 1.296.64.331.416.496.96.496 1.632v6.688h-1.328v-6.704c0-.3733-.085-.656-.256-.848-.16-.2027-.395-.304-.704-.304s-.549.1013-.72.304c-.171.192-.256.4693-.256.832v6.72h-1.152v-6.704c0-.3733-.091-.656-.272-.848-.171-.2027-.411-.304-.72-.304-.299 0-.533.1013-.704.304-.16.192-.24.4693-.24.832v6.72zm12.666.16c-.928 0-1.659-.2347-2.192-.704-.534-.48-.8-1.1253-.8-1.936 0-.8213.266-1.4667.8-1.936.533-.4693 1.253-.704 2.16-.704h2.72v-.88c0-.5333-.166-.9493-.496-1.248-.32-.2987-.768-.448-1.344-.448-.512 0-.944.112-1.296.336s-.571.5173-.656.88h-1.44c.053-.4907.229-.9227.528-1.296.309-.3733.709-.6613 1.2-.864.501-.2133 1.056-.32 1.664-.32 1.013 0 1.813.2613 2.4.784.586.5227.88 1.232.88 2.128v6.048h-1.408v-1.68h-.24l.24-.24c0 .64-.251 1.1467-.752 1.52-.491.3733-1.147.56-1.968.56zm.352-1.136c.682 0 1.242-.1707 1.68-.512.437-.3413.656-.7787.656-1.312v-1.248h-2.688c-.48 0-.859.1333-1.136.4-.278.2667-.416.6293-.416 1.088 0 .4907.165.88.496 1.168.341.2773.81.416 1.408.416zm6.698 3.856v-11.68h1.44v1.68h.288l-.288.336c0-.672.218-1.2.656-1.584.448-.3947 1.034-.592 1.76-.592.885 0 1.589.2933 2.112.88.533.576.8 1.3707.8 2.384v2.576c0 .672-.123 1.2533-.368 1.744-.235.4907-.571.8693-1.008 1.136-.427.2667-.939.4-1.536.4-.715 0-1.296-.1973-1.744-.592s-.672-.9227-.672-1.584l.288.336h-.32l.032 2v2.56zm3.376-3.968c.608 0 1.082-.1813 1.424-.544.352-.3627.528-.8853.528-1.568v-2.4c0-.6827-.176-1.2053-.528-1.568-.342-.3627-.816-.544-1.424-.544-.587 0-1.056.1867-1.408.56s-.528.8907-.528 1.552v2.4c0 .6613.176 1.1787.528 1.552s.821.56 1.408.56z"/><path d="m517.68 144v-1.312h2.384v-9.056h-2.384v-1.312h6.24v1.312h-2.384v9.056h2.384v1.312zm12.442.128c-.598 0-1.131-.091-1.6-.272-.47-.192-.838-.464-1.104-.816-.256-.352-.384-.768-.384-1.248h1.472c0 .331.154.592.464.784.32.181.714.272 1.184.272h.672c.565 0 .986-.112 1.264-.336.277-.235.416-.544.416-.928 0-.373-.134-.667-.4-.88-.256-.224-.63-.373-1.12-.448l-1.184-.192c-.875-.149-1.52-.427-1.936-.832s-.624-.965-.624-1.68c0-.8.256-1.413.768-1.84.522-.427 1.269-.64 2.24-.64h.608c.896 0 1.61.203 2.144.608.544.395.816.923.816 1.584h-1.472c0-.277-.139-.496-.416-.656-.267-.171-.635-.256-1.104-.256h-.608c-.502 0-.891.107-1.168.32-.267.203-.4.496-.4.88 0 .64.453 1.035 1.36 1.184l1.184.192c.949.149 1.637.427 2.064.832.437.405.656.992.656 1.76 0 .811-.262 1.451-.784 1.92-.512.459-1.291.688-2.336.688zm18.947.032c-.874 0-1.584-.293-2.128-.88-.533-.587-.8-1.381-.8-2.384v-2.576c0-1.013.267-1.813.8-2.4.534-.587 1.243-.88 2.128-.88.726 0 1.307.197 1.744.592.438.395.656.923.656 1.584l-.288-.336h.32l-.032-2v-2.56h1.44v11.68h-1.44v-1.68h-.288l.288-.336c0 .672-.218 1.205-.656 1.6-.437.384-1.018.576-1.744.576zm.48-1.248c.598 0 1.067-.187 1.408-.56.342-.373.512-.891.512-1.552v-2.4c0-.661-.17-1.179-.512-1.552-.341-.373-.81-.56-1.408-.56-.608 0-1.088.181-1.44.544s-.528.885-.528 1.568v2.4c0 .683.176 1.205.528 1.568s.832.544 1.44.544zm6.186 1.088v-1.312h3.12v-6.176h-2.8v-1.312h4.24v7.488h2.96v1.312zm3.68-10.384c-.352 0-.629-.091-.832-.272s-.304-.427-.304-.736c0-.32.101-.571.304-.752.203-.192.48-.288.832-.288s.629.096.832.288c.203.181.304.432.304.752 0 .309-.101.555-.304.736s-.48.272-.832.272zm9.082 10.512c-.598 0-1.131-.091-1.6-.272-.47-.192-.838-.464-1.104-.816-.256-.352-.384-.768-.384-1.248h1.472c0 .331.154.592.464.784.32.181.714.272 1.184.272h.672c.565 0 .986-.112 1.264-.336.277-.235.416-.544.416-.928 0-.373-.134-.667-.4-.88-.256-.224-.63-.373-1.12-.448l-1.184-.192c-.875-.149-1.52-.427-1.936-.832s-.624-.965-.624-1.68c0-.8.256-1.413.768-1.84.522-.427 1.269-.64 2.24-.64h.608c.896 0 1.61.203 2.144.608.544.395.816.923.816 1.584h-1.472c0-.277-.139-.496-.416-.656-.267-.171-.635-.256-1.104-.256h-.608c-.502 0-.891.107-1.168.32-.267.203-.4.496-.4.88 0 .64.453 1.035 1.36 1.184l1.184.192c.949.149 1.637.427 2.064.832.437.405.656.992.656 1.76 0 .811-.262 1.451-.784 1.92-.512.459-1.291.688-2.336.688zm6.554 2.752v-11.68h1.44v1.68h.288l-.288.336c0-.672.218-1.2.656-1.584.448-.395 1.034-.592 1.76-.592.885 0 1.589.293 2.112.88.533.576.8 1.371.8 2.384v2.576c0 .672-.123 1.253-.368 1.744-.235.491-.571.869-1.008 1.136-.427.267-.939.4-1.536.4-.715 0-1.296-.197-1.744-.592s-.672-.923-.672-1.584l.288.336h-.32l.032 2v2.56zm3.376-3.968c.608 0 1.082-.181 1.424-.544.352-.363.528-.885.528-1.568v-2.4c0-.683-.176-1.205-.528-1.568-.342-.363-.816-.544-1.424-.544-.587 0-1.056.187-1.408.56s-.528.891-.528 1.552v2.4c0 .661.176 1.179.528 1.552s.821.56 1.408.56zm10.809 1.088c-.512 0-.96-.101-1.344-.304s-.682-.491-.896-.864c-.213-.373-.32-.811-.32-1.312v-7.888h-3.04v-1.312h4.48v9.2c0 .363.102.651.304.864.203.203.475.304.816.304h2.72v1.312zm7.546.16c-.928 0-1.659-.235-2.192-.704-.533-.48-.8-1.125-.8-1.936 0-.821.267-1.467.8-1.936s1.253-.704 2.16-.704h2.72v-.88c0-.533-.165-.949-.496-1.248-.32-.299-.768-.448-1.344-.448-.512 0-.944.112-1.296.336s-.571.517-.656.88h-1.44c.053-.491.229-.923.528-1.296.309-.373.709-.661 1.2-.864.501-.213 1.056-.32 1.664-.32 1.013 0 1.813.261 2.4.784s.88 1.232.88 2.128v6.048h-1.408v-1.68h-.24l.24-.24c0 .64-.251 1.147-.752 1.52-.491.373-1.147.56-1.968.56zm.352-1.136c.683 0 1.243-.171 1.68-.512s.656-.779.656-1.312v-1.248h-2.688c-.48 0-.859.133-1.136.4s-.416.629-.416 1.088c0 .491.165.88.496 1.168.341.277.811.416 1.408.416zm8.074 3.856 1.296-3.424-3.36-8.256h1.568l2.144 5.44c.074.181.144.4.208.656.074.245.133.453.176.624.042-.171.101-.379.176-.624.074-.256.149-.475.224-.656l2-5.44h1.504l-4.432 11.68zm11.53-2.72c-.694 0-1.302-.139-1.824-.416-.512-.277-.912-.667-1.2-1.168-.278-.512-.416-1.104-.416-1.776v-2.4c0-.683.138-1.275.416-1.776.288-.501.688-.891 1.2-1.168.522-.277 1.13-.416 1.824-.416.693 0 1.296.139 1.808.416.522.277.922.667 1.2 1.168.288.501.432 1.093.432 1.776v1.552h-5.472v.848c0 .693.176 1.227.528 1.6.352.363.853.544 1.504.544.554 0 1.002-.096 1.344-.288.341-.203.549-.501.624-.896h1.44c-.096.736-.459 1.323-1.088 1.76-.619.427-1.392.64-2.32.64zm2.032-5.168v-.592c0-.693-.176-1.227-.528-1.6-.342-.373-.843-.56-1.504-.56-.651 0-1.152.187-1.504.56s-.528.907-.528 1.6v.464h4.176zm7.049 5.168c-.874 0-1.584-.293-2.128-.88-.533-.587-.8-1.381-.8-2.384v-2.576c0-1.013.267-1.813.8-2.4.534-.587 1.243-.88 2.128-.88.726 0 1.307.197 1.744.592.438.395.656.923.656 1.584l-.288-.336h.32l-.032-2v-2.56h1.44v11.68h-1.44v-1.68h-.288l.288-.336c0 .672-.218 1.205-.656 1.6-.437.384-1.018.576-1.744.576zm.48-1.248c.598 0 1.067-.187 1.408-.56.342-.373.512-.891.512-1.552v-2.4c0-.661-.17-1.179-.512-1.552-.341-.373-.81-.56-1.408-.56-.608 0-1.088.181-1.44.544s-.528.885-.528 1.568v2.4c0 .683.176 1.205.528 1.568s.832.544 1.44.544zm15.78 1.088v-1.312h3.12v-6.176h-2.8v-1.312h4.24v7.488h2.96v1.312zm3.68-10.384c-.352 0-.63-.091-.832-.272-.203-.181-.304-.427-.304-.736 0-.32.101-.571.304-.752.202-.192.48-.288.832-.288s.629.096.832.288c.202.181.304.432.304.752 0 .309-.102.555-.304.736-.203.181-.48.272-.832.272zm6.026 10.384v-8.8h1.44v1.68h.304l-.304.336c0-.693.208-1.227.624-1.6.416-.384.992-.576 1.728-.576.885 0 1.589.272 2.112.816.522.544.784 1.285.784 2.224v5.92h-1.44v-5.76c0-.629-.171-1.109-.512-1.44-.331-.341-.784-.512-1.36-.512-.598 0-1.072.181-1.424.544-.342.363-.512.885-.512 1.568v5.6zm23.475 0c-.725 0-1.307-.208-1.744-.624-.437-.427-.656-.992-.656-1.696v-5.168h-2.48v-1.312h2.48v-2.48h1.44v2.48h3.52v1.312h-3.52v5.168c0 .299.085.544.256.736.181.181.416.272.704.272h2.4v1.312zm5.306 0v-11.68h1.44v2.88 1.68h.304l-.304.336c0-.693.208-1.227.624-1.6.416-.384.992-.576 1.728-.576.885 0 1.589.272 2.112.816.522.544.784 1.285.784 2.224v5.92h-1.44v-5.76c0-.629-.171-1.115-.512-1.456-.331-.352-.784-.528-1.36-.528-.598 0-1.072.187-1.424.56-.342.373-.512.901-.512 1.584v5.6zm12.922.16c-.694 0-1.302-.139-1.824-.416-.512-.277-.912-.667-1.2-1.168-.278-.512-.416-1.104-.416-1.776v-2.4c0-.683.138-1.275.416-1.776.288-.501.688-.891 1.2-1.168.522-.277 1.13-.416 1.824-.416.693 0 1.296.139 1.808.416.522.277.922.667 1.2 1.168.288.501.432 1.093.432 1.776v1.552h-5.472v.848c0 .693.176 1.227.528 1.6.352.363.853.544 1.504.544.554 0 1.002-.096 1.344-.288.341-.203.549-.501.624-.896h1.44c-.096.736-.459 1.323-1.088 1.76-.619.427-1.392.64-2.32.64zm2.032-5.168v-.592c0-.693-.176-1.227-.528-1.6-.342-.373-.843-.56-1.504-.56-.651 0-1.152.187-1.504.56s-.528.907-.528 1.6v.464h4.176zm17.155 5.136c-.704 0-1.317-.133-1.84-.4-.512-.277-.907-.667-1.184-1.168s-.416-1.099-.416-1.792v-2.336c0-.693.139-1.291.416-1.792s.672-.885 1.184-1.152c.523-.277 1.136-.416 1.84-.416.715 0 1.328.139 1.84.416.512.267.907.651 1.184 1.152.277.491.416 1.083.416 1.776v2.352c0 .693-.139 1.291-.416 1.792s-.672.891-1.184 1.168c-.512.267-1.125.4-1.84.4zm0-1.28c.629 0 1.12-.176 1.472-.528s.528-.869.528-1.552v-2.336c0-.683-.176-1.2-.528-1.552s-.843-.528-1.472-.528c-.619 0-1.109.176-1.472.528-.352.352-.528.869-.528 1.552v2.336c0 .683.176 1.2.528 1.552.363.352.853.528 1.472.528zm10.106 1.312c-.726 0-1.307-.192-1.744-.576-.438-.395-.656-.928-.656-1.6l.288.336h-.288v1.68h-1.44v-11.68h1.44v2.56l-.032 2h.32l-.288.336c0-.661.218-1.189.656-1.584.448-.395 1.029-.592 1.744-.592.885 0 1.594.293 2.128.88.533.587.8 1.387.8 2.4v2.576c0 1.003-.267 1.797-.8 2.384-.534.587-1.243.88-2.128.88zm-.48-1.248c.608 0 1.088-.181 1.44-.544s.528-.885.528-1.568v-2.4c0-.683-.176-1.205-.528-1.568s-.832-.544-1.44-.544c-.587 0-1.056.187-1.408.56-.342.373-.512.891-.512 1.552v2.4c0 .661.17 1.179.512 1.552.352.373.821.56 1.408.56zm5.882 3.968v-1.328h2.304c.661 0 1.173-.181 1.536-.544.373-.352.56-.853.56-1.504v-6.992h-4.08v-1.312h5.52v8.304c0 1.035-.32 1.856-.96 2.464s-1.499.912-2.576.912zm5.04-13.264c-.352 0-.63-.091-.832-.272-.203-.181-.304-.427-.304-.736 0-.32.101-.571.304-.752.202-.192.48-.288.832-.288s.629.096.832.288c.202.181.304.432.304.752 0 .309-.102.555-.304.736-.203.181-.48.272-.832.272zm8.233 10.544c-.693 0-1.301-.139-1.824-.416-.512-.277-.912-.667-1.2-1.168-.277-.512-.416-1.104-.416-1.776v-2.4c0-.683.139-1.275.416-1.776.288-.501.688-.891 1.2-1.168.523-.277 1.131-.416 1.824-.416.694 0 1.296.139 1.808.416.523.277.923.667 1.2 1.168.288.501.432 1.093.432 1.776v1.552h-5.472v.848c0 .693.176 1.227.528 1.6.352.363.854.544 1.504.544.555 0 1.003-.096 1.344-.288.342-.203.55-.501.624-.896h1.44c-.096.736-.458 1.323-1.088 1.76-.618.427-1.392.64-2.32.64zm2.032-5.168v-.592c0-.693-.176-1.227-.528-1.6-.341-.373-.842-.56-1.504-.56-.65 0-1.152.187-1.504.56s-.528.907-.528 1.6v.464h4.176zm7.626 5.168c-.704 0-1.323-.133-1.856-.4-.523-.267-.928-.651-1.216-1.152-.288-.512-.432-1.115-.432-1.808v-2.4c0-.704.144-1.307.432-1.808s.693-.885 1.216-1.152c.533-.267 1.152-.4 1.856-.4 1.013 0 1.829.272 2.448.816s.944 1.285.976 2.224h-1.44c-.032-.565-.224-.997-.576-1.296-.341-.309-.811-.464-1.408-.464-.629 0-1.131.181-1.504.544-.373.352-.56.859-.56 1.52v2.416c0 .661.187 1.173.56 1.536s.875.544 1.504.544c.597 0 1.067-.155 1.408-.464.352-.309.544-.741.576-1.296h1.44c-.032.939-.357 1.68-.976 2.224s-1.435.816-2.448.816zm10.49-.16c-.726 0-1.307-.208-1.744-.624-.438-.427-.656-.992-.656-1.696v-5.168h-2.48v-1.312h2.48v-2.48h1.44v2.48h3.52v1.312h-3.52v5.168c0 .299.085.544.256.736.181.181.416.272.704.272h2.4v1.312zm18.291.16c-.704 0-1.322-.133-1.856-.4-.522-.267-.928-.651-1.216-1.152-.288-.512-.432-1.115-.432-1.808v-2.4c0-.704.144-1.307.432-1.808s.694-.885 1.216-1.152c.534-.267 1.152-.4 1.856-.4 1.014 0 1.83.272 2.448.816.619.544.944 1.285.976 2.224h-1.44c-.032-.565-.224-.997-.576-1.296-.341-.309-.81-.464-1.408-.464-.629 0-1.13.181-1.504.544-.373.352-.56.859-.56 1.52v2.416c0 .661.187 1.173.56 1.536.374.363.875.544 1.504.544.598 0 1.067-.155 1.408-.464.352-.309.544-.741.576-1.296h1.44c-.032.939-.357 1.68-.976 2.224-.618.544-1.434.816-2.448.816zm8.762 0c-.928 0-1.659-.235-2.192-.704-.533-.48-.8-1.125-.8-1.936 0-.821.267-1.467.8-1.936s1.253-.704 2.16-.704h2.72v-.88c0-.533-.165-.949-.496-1.248-.32-.299-.768-.448-1.344-.448-.512 0-.944.112-1.296.336s-.571.517-.656.88h-1.44c.053-.491.229-.923.528-1.296.309-.373.709-.661 1.2-.864.501-.213 1.056-.32 1.664-.32 1.013 0 1.813.261 2.4.784s.88 1.232.88 2.128v6.048h-1.408v-1.68h-.24l.24-.24c0 .64-.251 1.147-.752 1.52-.491.373-1.147.56-1.968.56zm.352-1.136c.683 0 1.243-.171 1.68-.512s.656-.779.656-1.312v-1.248h-2.688c-.48 0-.859.133-1.136.4s-.416.629-.416 1.088c0 .491.165.88.496 1.168.341.277.811.416 1.408.416zm6.954.976v-8.8h1.44v1.68h.304l-.304.336c0-.693.208-1.227.624-1.6.416-.384.992-.576 1.728-.576.917 0 1.648.293 2.192.88.544.576.816 1.36.816 2.352v.608h-1.44v-.48c0-.672-.171-1.189-.512-1.552-.342-.373-.838-.56-1.488-.56-.619 0-1.094.181-1.424.544-.331.352-.496.875-.496 1.568v5.6zm12.138.16c-.875 0-1.584-.293-2.128-.88-.534-.587-.8-1.381-.8-2.384v-2.576c0-1.013.266-1.813.8-2.4.533-.587 1.242-.88 2.128-.88.725 0 1.306.197 1.744.592.437.395.656.923.656 1.584l-.288-.336h.32l-.032-2v-2.56h1.44v11.68h-1.44v-1.68h-.288l.288-.336c0 .672-.219 1.205-.656 1.6-.438.384-1.019.576-1.744.576zm.48-1.248c.597 0 1.066-.187 1.408-.56.341-.373.512-.891.512-1.552v-2.4c0-.661-.171-1.179-.512-1.552-.342-.373-.811-.56-1.408-.56-.608 0-1.088.181-1.44.544s-.528.885-.528 1.568v2.4c0 .683.176 1.205.528 1.568s.832.544 1.44.544zm9.353 1.216c-.597 0-1.13-.091-1.6-.272-.469-.192-.837-.464-1.104-.816-.256-.352-.384-.768-.384-1.248h1.472c0 .331.155.592.464.784.32.181.715.272 1.184.272h.672c.566 0 .987-.112 1.264-.336.278-.235.416-.544.416-.928 0-.373-.133-.667-.4-.88-.256-.224-.629-.373-1.12-.448l-1.184-.192c-.874-.149-1.52-.427-1.936-.832s-.624-.965-.624-1.68c0-.8.256-1.413.768-1.84.523-.427 1.27-.64 2.24-.64h.608c.896 0 1.611.203 2.144.608.544.395.816.923.816 1.584h-1.472c0-.277-.138-.496-.416-.656-.266-.171-.634-.256-1.104-.256h-.608c-.501 0-.89.107-1.168.32-.266.203-.4.496-.4.88 0 .64.454 1.035 1.36 1.184l1.184.192c.95.149 1.638.427 2.064.832.438.405.656.992.656 1.76 0 .811-.261 1.451-.784 1.92-.512.459-1.29.688-2.336.688z"/><path d="m520.08 200v-10.368h-3.2v-1.312h7.84v1.312h-3.2v10.368zm10.314.128c-.704 0-1.318-.133-1.84-.4-.512-.277-.907-.667-1.184-1.168-.278-.501-.416-1.099-.416-1.792v-2.336c0-.693.138-1.291.416-1.792.277-.501.672-.885 1.184-1.152.522-.277 1.136-.416 1.84-.416.714 0 1.328.139 1.84.416.512.267.906.651 1.184 1.152.277.491.416 1.083.416 1.776v2.352c0 .693-.139 1.291-.416 1.792-.278.501-.672.891-1.184 1.168-.512.267-1.126.4-1.84.4zm0-1.28c.629 0 1.12-.176 1.472-.528s.528-.869.528-1.552v-2.336c0-.683-.176-1.2-.528-1.552s-.843-.528-1.472-.528c-.619 0-1.11.176-1.472.528-.352.352-.528.869-.528 1.552v2.336c0 .683.176 1.2.528 1.552.362.352.853.528 1.472.528zm18.915 1.28c-.597 0-1.13-.091-1.6-.272-.469-.192-.837-.464-1.104-.816-.256-.352-.384-.768-.384-1.248h1.472c0 .331.155.592.464.784.32.181.715.272 1.184.272h.672c.566 0 .987-.112 1.264-.336.278-.235.416-.544.416-.928 0-.373-.133-.667-.4-.88-.256-.224-.629-.373-1.12-.448l-1.184-.192c-.874-.149-1.52-.427-1.936-.832s-.624-.965-.624-1.68c0-.8.256-1.413.768-1.84.523-.427 1.27-.64 2.24-.64h.608c.896 0 1.611.203 2.144.608.544.395.816.923.816 1.584h-1.472c0-.277-.138-.496-.416-.656-.266-.171-.634-.256-1.104-.256h-.608c-.501 0-.89.107-1.168.32-.266.203-.4.496-.4.88 0 .64.454 1.035 1.36 1.184l1.184.192c.95.149 1.638.427 2.064.832.438.405.656.992.656 1.76 0 .811-.261 1.451-.784 1.92-.512.459-1.29.688-2.336.688zm6.538-.128v-11.68h1.44v2.88 1.68h.304l-.304.336c0-.693.208-1.227.624-1.6.416-.384.992-.576 1.728-.576.885 0 1.589.272 2.112.816s.784 1.285.784 2.224v5.92h-1.44v-5.76c0-.629-.171-1.115-.512-1.456-.331-.352-.784-.528-1.36-.528-.597 0-1.072.187-1.424.56-.341.373-.512.901-.512 1.584v5.6zm12.922.128c-.704 0-1.318-.133-1.84-.4-.512-.277-.907-.667-1.184-1.168-.278-.501-.416-1.099-.416-1.792v-2.336c0-.693.138-1.291.416-1.792.277-.501.672-.885 1.184-1.152.522-.277 1.136-.416 1.84-.416.714 0 1.328.139 1.84.416.512.267.906.651 1.184 1.152.277.491.416 1.083.416 1.776v2.352c0 .693-.139 1.291-.416 1.792-.278.501-.672.891-1.184 1.168-.512.267-1.126.4-1.84.4zm0-1.28c.629 0 1.12-.176 1.472-.528s.528-.869.528-1.552v-2.336c0-.683-.176-1.2-.528-1.552s-.843-.528-1.472-.528c-.619 0-1.11.176-1.472.528-.352.352-.528.869-.528 1.552v2.336c0 .683.176 1.2.528 1.552.362.352.853.528 1.472.528zm6.762 1.152-1.408-8.8h1.248l.88 6.24c.032.235.064.491.096.768.032.267.053.491.064.672h.064c.021-.181.048-.405.08-.672.032-.277.069-.533.112-.768l.976-6.24h1.44l.976 6.24c.042.235.08.491.112.768.042.267.069.491.08.672h.064c.021-.181.048-.405.08-.672.042-.277.08-.533.112-.768l.912-6.24h1.183l-1.471 8.8h-1.584l-.944-6.08c-.043-.299-.086-.597-.128-.896-.043-.299-.075-.533-.096-.704h-.064c-.011.171-.038.405-.08.704-.032.299-.075.597-.128.896l-.992 6.08zm22.019.128c-.704 0-1.317-.133-1.84-.4-.512-.277-.907-.667-1.184-1.168s-.416-1.099-.416-1.792v-2.336c0-.693.139-1.291.416-1.792s.672-.885 1.184-1.152c.523-.277 1.136-.416 1.84-.416.715 0 1.328.139 1.84.416.512.267.907.651 1.184 1.152.277.491.416 1.083.416 1.776v2.352c0 .693-.139 1.291-.416 1.792s-.672.891-1.184 1.168c-.512.267-1.125.4-1.84.4zm0-1.28c.629 0 1.12-.176 1.472-.528s.528-.869.528-1.552v-2.336c0-.683-.176-1.2-.528-1.552s-.843-.528-1.472-.528c-.619 0-1.109.176-1.472.528-.352.352-.528.869-.528 1.552v2.336c0 .683.176 1.2.528 1.552.363.352.853.528 1.472.528zm6.538 1.152v-8.8h1.44v1.68h.304l-.304.336c0-.693.208-1.227.624-1.6.416-.384.992-.576 1.728-.576.917 0 1.648.293 2.192.88.544.576.816 1.36.816 2.352v.608h-1.44v-.48c0-.672-.171-1.189-.512-1.552-.342-.373-.838-.56-1.488-.56-.619 0-1.094.181-1.424.544-.331.352-.496.875-.496 1.568v5.6zm18.915 0v-8.8h1.44v1.68h.304l-.304.336c0-.693.208-1.227.624-1.6.416-.384.992-.576 1.728-.576.886 0 1.59.272 2.112.816.523.544.784 1.285.784 2.224v5.92h-1.44v-5.76c0-.629-.17-1.109-.512-1.44-.33-.341-.784-.512-1.36-.512-.597 0-1.072.181-1.424.544-.341.363-.512.885-.512 1.568v5.6zm12.922.128c-.704 0-1.317-.133-1.84-.4-.512-.277-.907-.667-1.184-1.168s-.416-1.099-.416-1.792v-2.336c0-.693.139-1.291.416-1.792s.672-.885 1.184-1.152c.523-.277 1.136-.416 1.84-.416.715 0 1.328.139 1.84.416.512.267.907.651 1.184 1.152.277.491.416 1.083.416 1.776v2.352c0 .693-.139 1.291-.416 1.792s-.672.891-1.184 1.168c-.512.267-1.125.4-1.84.4zm0-1.28c.629 0 1.12-.176 1.472-.528s.528-.869.528-1.552v-2.336c0-.683-.176-1.2-.528-1.552s-.843-.528-1.472-.528c-.619 0-1.109.176-1.472.528-.352.352-.528.869-.528 1.552v2.336c0 .683.176 1.2.528 1.552.363.352.853.528 1.472.528zm10.554 1.152c-.726 0-1.307-.208-1.744-.624-.438-.427-.656-.992-.656-1.696v-5.168h-2.48v-1.312h2.48v-2.48h1.44v2.48h3.52v1.312h-3.52v5.168c0 .299.085.544.256.736.181.181.416.272.704.272h2.4v1.312zm19.187 0c-.725 0-1.306-.208-1.744-.624-.437-.427-.656-.992-.656-1.696v-5.168h-2.48v-1.312h2.48v-2.48h1.44v2.48h3.52v1.312h-3.52v5.168c0 .299.086.544.256.736.182.181.416.272.704.272h2.4v1.312zm8.634.128c-.704 0-1.317-.133-1.84-.4-.512-.277-.907-.667-1.184-1.168s-.416-1.099-.416-1.792v-2.336c0-.693.139-1.291.416-1.792s.672-.885 1.184-1.152c.523-.277 1.136-.416 1.84-.416.715 0 1.328.139 1.84.416.512.267.907.651 1.184 1.152.277.491.416 1.083.416 1.776v2.352c0 .693-.139 1.291-.416 1.792s-.672.891-1.184 1.168c-.512.267-1.125.4-1.84.4zm0-1.28c.629 0 1.12-.176 1.472-.528s.528-.869.528-1.552v-2.336c0-.683-.176-1.2-.528-1.552s-.843-.528-1.472-.528c-.619 0-1.109.176-1.472.528-.352.352-.528.869-.528 1.552v2.336c0 .683.176 1.2.528 1.552.363.352.853.528 1.472.528zm18.916 1.28c-.598 0-1.131-.091-1.6-.272-.47-.192-.838-.464-1.104-.816-.256-.352-.384-.768-.384-1.248h1.472c0 .331.154.592.464.784.32.181.714.272 1.184.272h.672c.565 0 .986-.112 1.264-.336.277-.235.416-.544.416-.928 0-.373-.134-.667-.4-.88-.256-.224-.63-.373-1.12-.448l-1.184-.192c-.875-.149-1.52-.427-1.936-.832s-.624-.965-.624-1.68c0-.8.256-1.413.768-1.84.522-.427 1.269-.64 2.24-.64h.608c.896 0 1.61.203 2.144.608.544.395.815.923.815 1.584h-1.471c0-.277-.139-.496-.416-.656-.267-.171-.635-.256-1.104-.256h-.608c-.502 0-.891.107-1.168.32-.267.203-.4.496-.4.88 0 .64.453 1.035 1.36 1.184l1.184.192c.949.149 1.637.427 2.064.832.437.405.656.992.656 1.76 0 .811-.262 1.451-.784 1.92-.512.459-1.291.688-2.336.688zm6.537-.128v-11.68h1.44v2.88 1.68h.304l-.304.336c0-.693.208-1.227.624-1.6.416-.384.992-.576 1.728-.576.886 0 1.59.272 2.112.816.523.544.784 1.285.784 2.224v5.92h-1.44v-5.76c0-.629-.17-1.115-.512-1.456-.33-.352-.784-.528-1.36-.528-.597 0-1.072.187-1.424.56-.341.373-.512.901-.512 1.584v5.6zm12.922.128c-.704 0-1.317-.133-1.84-.4-.512-.277-.907-.667-1.184-1.168s-.416-1.099-.416-1.792v-2.336c0-.693.139-1.291.416-1.792s.672-.885 1.184-1.152c.523-.277 1.136-.416 1.84-.416.715 0 1.328.139 1.84.416.512.267.907.651 1.184 1.152.277.491.416 1.083.416 1.776v2.352c0 .693-.139 1.291-.416 1.792s-.672.891-1.184 1.168c-.512.267-1.125.4-1.84.4zm0-1.28c.629 0 1.12-.176 1.472-.528s.528-.869.528-1.552v-2.336c0-.683-.176-1.2-.528-1.552s-.843-.528-1.472-.528c-.619 0-1.109.176-1.472.528-.352.352-.528.869-.528 1.552v2.336c0 .683.176 1.2.528 1.552.363.352.853.528 1.472.528zm6.762 1.152-1.408-8.8h1.248l.88 6.24c.032.235.064.491.096.768.032.267.053.491.064.672h.064c.021-.181.048-.405.08-.672.032-.277.069-.533.112-.768l.976-6.24h1.44l.976 6.24c.042.235.08.491.112.768.042.267.069.491.08.672h.064c.021-.181.048-.405.08-.672.042-.277.08-.533.112-.768l.912-6.24h1.184l-1.472 8.8h-1.584l-.944-6.08c-.043-.299-.086-.597-.128-.896-.043-.299-.075-.533-.096-.704h-.064c-.011.171-.038.405-.08.704-.032.299-.075.597-.128.896l-.992 6.08zm22.019.128c-.704 0-1.317-.133-1.84-.4-.512-.277-.906-.667-1.184-1.168-.277-.501-.416-1.099-.416-1.792v-2.336c0-.693.139-1.291.416-1.792.278-.501.672-.885 1.184-1.152.523-.277 1.136-.416 1.84-.416.715 0 1.328.139 1.84.416.512.267.907.651 1.184 1.152.278.491.416 1.083.416 1.776v2.352c0 .693-.138 1.291-.416 1.792-.277.501-.672.891-1.184 1.168-.512.267-1.125.4-1.84.4zm0-1.28c.63 0 1.12-.176 1.472-.528s.528-.869.528-1.552v-2.336c0-.683-.176-1.2-.528-1.552s-.842-.528-1.472-.528c-.618 0-1.109.176-1.472.528-.352.352-.528.869-.528 1.552v2.336c0 .683.176 1.2.528 1.552.363.352.854.528 1.472.528zm6.266 1.152v-8.8h1.44v1.68h.304l-.304.336c0-.693.208-1.227.624-1.6.416-.384.992-.576 1.728-.576.885 0 1.589.272 2.112.816s.784 1.285.784 2.224v5.92h-1.44v-5.76c0-.629-.171-1.109-.512-1.44-.331-.341-.784-.512-1.36-.512-.597 0-1.072.181-1.424.544-.341.363-.512.885-.512 1.568v5.6zm23.476 0c-.726 0-1.307-.208-1.744-.624-.438-.427-.656-.992-.656-1.696v-5.168h-2.48v-1.312h2.48v-2.48h1.44v2.48h3.52v1.312h-3.52v5.168c0 .299.085.544.256.736.181.181.416.272.704.272h2.4v1.312zm5.305 0v-11.68h1.44v2.88 1.68h.304l-.304.336c0-.693.208-1.227.624-1.6.416-.384.992-.576 1.728-.576.886 0 1.59.272 2.112.816.523.544.784 1.285.784 2.224v5.92h-1.44v-5.76c0-.629-.17-1.115-.512-1.456-.33-.352-.784-.528-1.36-.528-.597 0-1.072.187-1.424.56-.341.373-.512.901-.512 1.584v5.6zm12.922.16c-.693 0-1.301-.139-1.824-.416-.512-.277-.912-.667-1.2-1.168-.277-.512-.416-1.104-.416-1.776v-2.4c0-.683.139-1.275.416-1.776.288-.501.688-.891 1.2-1.168.523-.277 1.131-.416 1.824-.416s1.296.139 1.808.416c.523.277.923.667 1.2 1.168.288.501.432 1.093.432 1.776v1.552h-5.472v.848c0 .693.176 1.227.528 1.6.352.363.853.544 1.504.544.555 0 1.003-.096 1.344-.288.341-.203.549-.501.624-.896h1.44c-.096.736-.459 1.323-1.088 1.76-.619.427-1.392.64-2.32.64zm2.032-5.168v-.592c0-.693-.176-1.227-.528-1.6-.341-.373-.843-.56-1.504-.56-.651 0-1.152.187-1.504.56s-.528.907-.528 1.6v.464h4.176zm13.316 5.008v-8.8h1.264v1.056h.288l-.224.384c0-.469.138-.853.416-1.152.277-.299.64-.448 1.088-.448.469 0 .848.192 1.136.576.298.384.448.885.448 1.504l-.432-.864h.672l-.304.384c0-.469.138-.853.416-1.152.288-.299.661-.448 1.12-.448.533 0 .965.213 1.296.64.33.416.496.96.496 1.632v6.688h-1.328v-6.704c0-.373-.086-.656-.256-.848-.16-.203-.395-.304-.704-.304-.31 0-.55.101-.72.304-.171.192-.256.469-.256.832v6.72h-1.153v-6.704c0-.373-.09-.656-.271-.848-.171-.203-.411-.304-.72-.304-.299 0-.534.101-.704.304-.16.192-.24.469-.24.832v6.72zm12.665.16c-.928 0-1.658-.235-2.192-.704-.533-.48-.8-1.125-.8-1.936 0-.821.267-1.467.8-1.936.534-.469 1.254-.704 2.16-.704h2.72v-.88c0-.533-.165-.949-.496-1.248-.32-.299-.768-.448-1.344-.448-.512 0-.944.112-1.296.336s-.57.517-.656.88h-1.44c.054-.491.23-.923.528-1.296.31-.373.71-.661 1.2-.864.502-.213 1.056-.32 1.664-.32 1.014 0 1.814.261 2.4.784.587.523.88 1.232.88 2.128v6.048h-1.408v-1.68h-.24l.24-.24c0 .64-.25 1.147-.752 1.52-.49.373-1.146.56-1.968.56zm.352-1.136c.683 0 1.243-.171 1.68-.512.438-.341.656-.779.656-1.312v-1.248h-2.688c-.48 0-.858.133-1.136.4-.277.267-.416.629-.416 1.088 0 .491.166.88.496 1.168.342.277.811.416 1.408.416zm6.698 3.856v-11.68h1.44v1.68h.288l-.288.336c0-.672.219-1.2.656-1.584.448-.395 1.035-.592 1.76-.592.885 0 1.589.293 2.112.88.533.576.8 1.371.8 2.384v2.576c0 .672-.123 1.253-.368 1.744-.235.491-.571.869-1.008 1.136-.427.267-.939.4-1.536.4-.715 0-1.296-.197-1.744-.592s-.672-.923-.672-1.584l.288.336h-.32l.032 2v2.56zm3.376-3.968c.608 0 1.083-.181 1.424-.544.352-.363.528-.885.528-1.568v-2.4c0-.683-.176-1.205-.528-1.568-.341-.363-.816-.544-1.424-.544-.587 0-1.056.187-1.408.56s-.528.891-.528 1.552v2.4c0 .661.176 1.179.528 1.552s.821.56 1.408.56z"/></g><rect fill="#303f5c" height="26" rx="4" width="240" x="748" y="62"/><g filter="url(#a)"><path d="m796.5 76c0-2.2091 1.791-4 4-4h135c2.209 0 4 1.7909 4 4v12h-143z" fill="#0a0d16" fill-opacity=".88"/><path d="m803.617 83.1113c-.469 0-.883-.0703-1.242-.2109-.359-.1445-.648-.3457-.867-.6035-.215-.2578-.342-.5606-.381-.9082h1.043c.086.2617.254.4726.504.6328.25.1601.576.2402.978.2402.286 0 .536-.041.75-.123.219-.086.391-.2012.516-.3457.125-.1485.187-.3184.187-.5098v-.0117c0-.2149-.085-.3965-.257-.5449-.172-.1524-.453-.2754-.844-.3692l-.979-.2344c-.394-.0937-.718-.2148-.972-.3632-.254-.1524-.442-.3379-.563-.5567-.121-.2226-.181-.4843-.181-.7851v-.0059c0-.3516.101-.666.304-.9433.207-.2774.489-.4961.844-.6563s.756-.2402 1.201-.2402c.442 0 .832.0703 1.172.2109.344.1367.619.332.826.5859.211.2539.34.5528.387.8965h-1.002c-.066-.25-.219-.4531-.457-.6094-.238-.1562-.549-.2343-.932-.2343-.25 0-.472.041-.668.123-.195.0781-.349.1875-.463.3281-.113.1407-.169.3047-.169.4922v.0118c0 .1406.037.2656.111.375.074.1093.189.205.346.2871.156.082.357.1543.603.2168l.973.2343c.594.1446 1.035.3516 1.324.6211.293.2696.439.6309.439 1.084v.0117c0 .375-.111.7071-.334.9961-.222.2852-.525.5078-.908.668-.379.1601-.808.2402-1.289.2402zm4.172-.1113v-8.8242h1.02v8.8242zm5.572.1113c-.597 0-1.115-.1308-1.552-.3925-.434-.2657-.77-.6426-1.008-1.1309-.235-.4883-.352-1.0684-.352-1.7402v-.0118c0-.6757.117-1.2578.352-1.7461.238-.4882.574-.8632 1.008-1.125.437-.2617.955-.3925 1.552-.3925.602 0 1.119.1308 1.553.3925.434.2618.768.6368 1.002 1.125.238.4883.357 1.0704.357 1.7461v.0118c0 .6718-.119 1.2519-.357 1.7402-.234.4883-.568.8652-1.002 1.1309-.434.2617-.951.3925-1.553.3925zm0-.9023c.399 0 .737-.0938 1.014-.2813s.488-.457.633-.8086c.148-.3515.222-.7753.222-1.2714v-.0118c0-.5-.074-.9257-.222-1.2773-.145-.3516-.356-.6191-.633-.8027-.277-.1875-.615-.2813-1.014-.2813-.398 0-.736.0938-1.013.2813-.278.1836-.491.4511-.639.8027-.145.3516-.217.7773-.217 1.2773v.0118c0 .4961.072.9199.217 1.2714.148.3516.361.6211.639.8086.277.1875.615.2813 1.013.2813zm4.799 3.0058c-.066 0-.14-.0039-.222-.0117-.083-.0039-.159-.0117-.229-.0234v-.8379c.062.0117.131.0195.205.0234s.147.0059.217.0059c.289 0 .525-.0742.709-.2227.187-.1484.338-.4043.451-.7675l.117-.375-2.338-6.3223h1.09l1.945 5.8359-.404-.6386h.481l-.405.6386 1.94-5.8359h1.072l-2.467 6.7031c-.172.4727-.353.8418-.545 1.1074-.191.2657-.416.4512-.673.5567-.254.1094-.569.164-.944.164zm5.93-2.1562c-.207 0-.387-.0742-.539-.2227-.149-.1523-.223-.332-.223-.539 0-.211.074-.3907.223-.5391.152-.1484.332-.2226.539-.2226.211 0 .39.0742.539.2226.148.1484.223.3281.223.5391 0 .207-.075.3867-.223.539-.149.1485-.328.2227-.539.2227zm2.754-.0586v-6.3164h1.019v6.3164zm.515-7.5352c-.191 0-.357-.0683-.498-.205-.136-.1407-.205-.3067-.205-.4981 0-.1953.069-.3613.205-.498.141-.1367.307-.2051.498-.2051.196 0 .362.0684.498.2051.137.1367.205.3027.205.498 0 .1914-.068.3574-.205.4981-.136.1367-.302.205-.498.205zm5.022 7.6465c-.598 0-1.115-.1308-1.553-.3925-.433-.2657-.769-.6426-1.008-1.1309-.234-.4883-.351-1.0684-.351-1.7402v-.0118c0-.6757.117-1.2578.351-1.7461.239-.4882.575-.8632 1.008-1.125.438-.2617.955-.3925 1.553-.3925.601 0 1.119.1308 1.553.3925.433.2618.767.6368 1.002 1.125.238.4883.357 1.0704.357 1.7461v.0118c0 .6718-.119 1.2519-.357 1.7402-.235.4883-.569.8652-1.002 1.1309-.434.2617-.952.3925-1.553.3925zm0-.9023c.398 0 .736-.0938 1.014-.2813.277-.1875.488-.457.632-.8086.149-.3515.223-.7753.223-1.2714v-.0118c0-.5-.074-.9257-.223-1.2773-.144-.3516-.355-.6191-.632-.8027-.278-.1875-.616-.2813-1.014-.2813-.399 0-.736.0938-1.014.2813-.277.1836-.49.4511-.638.8027-.145.3516-.217.7773-.217 1.2773v.0118c0 .4961.072.9199.217 1.2714.148.3516.361.6211.638.8086.278.1875.615.2813 1.014.2813zm8.701-1.8516c-.207 0-.387-.0742-.539-.2226-.148-.1524-.223-.3321-.223-.5391 0-.2109.075-.3906.223-.5391.152-.1484.332-.2226.539-.2226.211 0 .391.0742.539.2226.149.1485.223.3282.223.5391 0 .207-.074.3867-.223.5391-.148.1484-.328.2226-.539.2226zm9.639 2.8418c-.766 0-1.428-.1797-1.987-.539-.558-.3594-.99-.8692-1.295-1.5293-.3-.6602-.451-1.4434-.451-2.3497v-.0117c0-.9101.151-1.6953.451-2.3554.305-.6602.735-1.17 1.29-1.5293.558-.3594 1.22-.5391 1.986-.5391.594 0 1.133.1172 1.617.3516.488.2304.891.5527 1.207.9668.316.4101.516.8847.598 1.4238l-.006.0117h-1.061l-.006-.0117c-.093-.3633-.252-.6758-.474-.9375-.223-.2656-.494-.4707-.815-.6152-.316-.1446-.67-.2168-1.06-.2168-.539 0-1.008.1406-1.406.4218-.395.2813-.7.6797-.914 1.1953-.215.5157-.323 1.127-.323 1.834v.0117c0 .7032.108 1.3126.323 1.8282.214.5156.519.914.914 1.1953.398.2812.869.4219 1.412.4219.394 0 .752-.0625 1.072-.1875.32-.1289.59-.3106.809-.545.218-.2382.371-.5195.457-.8437l.011-.0117h1.067v.0117c-.094.5156-.297.9648-.61 1.3476-.312.379-.709.6739-1.189.8848-.477.211-1.016.3164-1.617.3164zm7.652-.0879c-.598 0-1.115-.1308-1.553-.3925-.433-.2657-.769-.6426-1.008-1.1309-.234-.4883-.351-1.0684-.351-1.7402v-.0118c0-.6757.117-1.2578.351-1.7461.239-.4882.575-.8632 1.008-1.125.438-.2617.955-.3925 1.553-.3925.602 0 1.119.1308 1.553.3925.433.2618.767.6368 1.002 1.125.238.4883.357 1.0704.357 1.7461v.0118c0 .6718-.119 1.2519-.357 1.7402-.235.4883-.569.8652-1.002 1.1309-.434.2617-.951.3925-1.553.3925zm0-.9023c.398 0 .736-.0938 1.014-.2813.277-.1875.488-.457.633-.8086.148-.3515.222-.7753.222-1.2714v-.0118c0-.5-.074-.9257-.222-1.2773-.145-.3516-.356-.6191-.633-.8027-.278-.1875-.616-.2813-1.014-.2813s-.736.0938-1.014.2813c-.277.1836-.49.4511-.638.8027-.145.3516-.217.7773-.217 1.2773v.0118c0 .4961.072.9199.217 1.2714.148.3516.361.6211.638.8086.278.1875.616.2813 1.014.2813zm4.494 2.9004v-8.4258h1.02v1.0078h.093c.129-.2344.291-.4336.487-.5976.195-.168.418-.2969.668-.3868.25-.0898.521-.1347.814-.1347.535 0 1 .1367 1.395.4101.398.2696.707.6485.926 1.1367.218.4883.328 1.0606.328 1.7168v.0118c0 .6601-.11 1.2343-.328 1.7226-.219.4883-.528.8672-.926 1.1367-.395.2696-.86.4043-1.395.4043-.289 0-.562-.0449-.82-.1347-.254-.0938-.481-.2227-.68-.3868-.195-.164-.351-.3593-.469-.5859h-.093v3.1055zm2.848-2.9004c.387 0 .717-.0938.99-.2813.274-.1914.483-.4629.627-.8144.148-.3555.223-.7774.223-1.2656v-.0118c0-.4921-.075-.914-.223-1.2656-.144-.3515-.353-.6211-.627-.8086-.273-.1914-.603-.2871-.99-.2871-.383 0-.713.0957-.99.2871-.278.1914-.491.4629-.639.8145-.148.3515-.223.7715-.223 1.2597v.0118c0 .4843.075.9043.223 1.2597.148.3516.361.6231.639.8145.277.1914.607.2871.99.2871zm4.781 3.0058c-.066 0-.141-.0039-.223-.0117-.082-.0039-.158-.0117-.228-.0234v-.8379c.062.0117.131.0195.205.0234s.146.0059.217.0059c.289 0 .525-.0742.709-.2227.187-.1484.338-.4043.451-.7675l.117-.375-2.338-6.3223h1.09l1.945 5.8359-.404-.6386h.481l-.405.6386 1.94-5.8359h1.072l-2.467 6.7031c-.172.4727-.353.8418-.545 1.1074-.191.2657-.416.4512-.674.5567-.253.1094-.568.164-.943.164zm5.977-2.2148v-6.3164h1.019v.9375h.094c.121-.332.326-.5899.615-.7734.289-.1836.647-.2754 1.072-.2754.098 0 .194.0058.288.0175.097.0079.171.0157.222.0235v.9902c-.105-.0195-.209-.0332-.31-.041-.098-.0117-.203-.0176-.317-.0176-.324 0-.611.0645-.861.1934s-.447.3086-.592.539c-.141.2305-.211.5-.211.8086v3.9141zm4.593 0v-6.3164h1.02v6.3164zm.516-7.5352c-.191 0-.357-.0683-.498-.205-.137-.1407-.205-.3067-.205-.4981 0-.1953.068-.3613.205-.498.141-.1367.307-.2051.498-.2051.195 0 .361.0684.498.2051s.205.3027.205.498c0 .1914-.068.3574-.205.4981-.137.1367-.303.205-.498.205zm5.027 9.7618c-.507 0-.951-.0723-1.33-.2168-.379-.1407-.681-.3418-.908-.6036-.223-.2578-.361-.5585-.416-.9023l.012-.0059h1.054l.006.0059c.055.2383.219.4336.493.5859.273.1563.636.2344 1.089.2344.567 0 1.008-.1289 1.325-.3867.32-.2539.48-.6133.48-1.0781v-1.2774h-.094c-.132.2305-.299.4278-.498.5918-.199.1641-.424.2891-.674.375-.25.0821-.519.1231-.808.1231-.543 0-1.014-.1289-1.412-.3867-.395-.2618-.699-.6211-.914-1.0782-.215-.457-.323-.9804-.323-1.5703v-.0117c0-.5898.108-1.1133.323-1.5703.218-.4609.527-.8223.925-1.084.399-.2656.873-.3984 1.424-.3984.297 0 .571.0468.821.1406.25.0937.47.2266.662.3984.195.1719.357.377.486.6153h.07v-1.043h1.02v6.2285c0 .4688-.115.877-.346 1.2246-.226.3477-.551.6153-.972.8028-.422.1914-.92.2871-1.495.2871zm-.047-3.4571c.391 0 .725-.0898 1.002-.2695.282-.1836.497-.4355.645-.7559.152-.3203.229-.6894.229-1.1074v-.0117c0-.418-.077-.7891-.229-1.1133-.148-.3242-.363-.5781-.645-.7617-.277-.1836-.611-.2754-1.002-.2754-.39 0-.722.0918-.996.2754-.269.1836-.476.4375-.621.7617-.14.3242-.211.6953-.211 1.1133v.0117c0 .418.071.7871.211 1.1074.145.3204.352.5723.621.7559.274.1797.606.2695.996.2695zm4.817 1.2305v-8.8242h1.019v3.457h.094c.16-.3359.391-.5957.692-.7793.3-.1875.683-.2812 1.148-.2812.473 0 .873.0918 1.201.2754.328.1796.578.4433.75.791.172.3476.258.7715.258 1.2715v4.0898h-1.02v-3.8438c0-.5703-.121-.9921-.363-1.2656-.238-.2773-.609-.416-1.113-.416-.336 0-.627.0723-.873.2168s-.438.3496-.574.6152c-.133.2657-.2.584-.2.9551v3.7383zm9.252.0469c-.649 0-1.119-.1309-1.412-.3926-.289-.2617-.434-.6934-.434-1.2949v-3.8321h-.996v-.8437h.996v-1.6348h1.055v1.6348h1.383v.8437h-1.383v3.5743c0 .3711.07.6386.211.8027.14.1602.375.2402.703.2402.09 0 .166-.0019.228-.0058.067-.0039.147-.0098.241-.0176v.8672c-.098.0156-.196.0293-.293.041-.098.0117-.198.0176-.299.0176zm2.244-.0469v-8.4551h1.025l4.846 6.9492-.703-.3691h.539v-6.5801h1.043v8.4551h-1.025l-4.846-6.9258.703.3692h-.539v6.5566zm10.512.1113c-.399 0-.758-.0761-1.078-.2285-.317-.1523-.569-.3691-.756-.6504-.184-.2812-.276-.6133-.276-.9961v-.0117c0-.375.09-.6953.27-.9609.18-.2696.441-.4805.785-.6328.344-.1524.76-.2422 1.248-.2696l2.32-.1406v.8145l-2.197.1406c-.48.0273-.832.1269-1.055.2988-.218.1719-.328.4141-.328.7266v.0117c0 .3203.121.5703.364.75.242.1758.546.2637.914.2637.347 0 .656-.0684.925-.2051.27-.1406.481-.3301.633-.5684.156-.2383.235-.5078.235-.8086v-1.9687c0-.3906-.12-.6875-.358-.8906-.234-.2071-.588-.3106-1.06-.3106-.379 0-.69.0684-.932.2051-.242.1328-.404.3223-.486.5683l-.006.0176h-1.02l.006-.0351c.055-.3321.192-.6211.41-.8672.223-.25.51-.4434.862-.5801.351-.1406.752-.2109 1.201-.2109.515 0 .951.0839 1.306.2519.36.168.631.4102.815.7266.187.3125.281.6875.281 1.125v4.3242h-1.019v-.9316h-.094c-.133.2226-.295.4121-.486.5683-.188.1563-.401.2754-.639.3574-.238.0782-.5.1172-.785.1172zm4.886-.1113v-6.3164h1.02v.9609h.094c.14-.3398.355-.6035.644-.791.293-.1875.647-.2812 1.061-.2812.285 0 .541.0468.767.1406.227.0937.422.2246.586.3926.164.164.295.3554.393.5742h.094c.113-.2227.265-.416.457-.5801.191-.168.412-.2969.662-.3867.254-.0938.525-.1406.814-.1406.43 0 .793.08 1.09.2402.301.1602.529.3945.686.7031.156.3047.234.6778.234 1.1192v4.3652h-1.02v-4.1309c0-.3125-.048-.5703-.146-.7734-.094-.207-.238-.3613-.434-.4629-.195-.1055-.441-.1582-.738-.1582-.293 0-.549.0664-.767.1992-.219.1328-.389.3106-.51.5332-.121.2188-.182.4629-.182.7325v4.0605h-1.019v-4.2891c0-.25-.055-.4668-.164-.6504-.106-.1875-.258-.332-.457-.4335-.196-.1016-.426-.1524-.692-.1524-.273 0-.521.0723-.744.2168-.219.1445-.393.3398-.522.5859-.125.2422-.187.5118-.187.8086v3.9141zm13.02.1113c-.602 0-1.119-.1328-1.553-.3984-.429-.2656-.761-.6406-.996-1.125-.23-.4883-.346-1.0625-.346-1.7227v-.0058c0-.6524.116-1.2246.346-1.7168.235-.4922.565-.877.99-1.1543.426-.2774.924-.416 1.495-.416.574 0 1.066.1328 1.476.3984.414.2656.731.6367.949 1.1133.223.4726.334 1.0234.334 1.6523v.3985h-5.062v-.8145h4.541l-.504.7442v-.4043c0-.4961-.074-.9043-.223-1.2247-.148-.3203-.353-.5585-.615-.7148-.262-.1602-.563-.2402-.902-.2402-.34 0-.645.084-.914.2519-.266.1641-.477.4082-.633.7324-.156.3243-.235.7227-.235 1.1954v.4043c0 .4492.077.8339.229 1.1543.152.3164.369.5605.65.7324.282.1679.614.2519.996.2519.286 0 .534-.039.745-.1172.21-.0781.384-.1777.521-.2988s.232-.2441.287-.3691l.024-.0528h1.019l-.012.0469c-.054.2149-.152.4238-.293.627-.136.1992-.314.3808-.533.5449-.219.1601-.478.289-.779.3867-.297.0938-.631.1406-1.002.1406z" fill="#fff" opacity=".5"/></g><path d="m838.333 195c0 1.473 1.194 2.667 2.667 2.667s2.667-1.194 2.667-2.667-1.194-2.667-2.667-2.667-2.667 1.194-2.667 2.667zm29.667-107-2.887 5h5.774zm-5.067 81.221.449.22zm2.348-5.668.473.163zm3.219-33.737v-37.316h-1v37.316zm-27.146 65.538c12.153-12.154 18.316-18.308 22.028-25.913l-.898-.439c-3.622 7.42-9.636 13.443-21.838 25.644zm26.146-65.538c0 17.256-.006 25.767-2.692 33.575l.946.325c2.752-8.002 2.746-16.712 2.746-33.9zm-4.118 39.625c.907-1.858 1.699-3.77 2.372-5.725l-.946-.325c-.659 1.916-1.435 3.79-2.324 5.611z" fill="#ff8c00"/></svg>